<?xml version="1.0" encoding="UTF-8"?>
<svg width="105px" height="90px" viewBox="0 0 105 90" version="1.1" xmlns="http://www.w3.org/2000/svg" xmlns:xlink="http://www.w3.org/1999/xlink">
    <title>tab_menu/icon_chat_off</title>
    <g id="Page-1" stroke="none" stroke-width="1" fill="none" fill-rule="evenodd">
        <g id="tab/unselect" transform="translate(-489.000000, -1617.000000)" fill="#4A4A4A">
            <g id="TAB" transform="translate(0.000000, 1611.000000)">
                <g id="tab_menu/icon_chat_off" transform="translate(489.000000, 6.000000)">
                    <path d="M42.1706304,44.5 C51.1529594,44.5 58.5,51.7977607 58.5,60.7299023 L58.5,60.7299023 L58.5,61.6505212 C58.5,70.5826628 51.1529594,77.8804235 42.1706304,77.8804235 L42.1706304,77.8804235 L28.2680965,77.8804235 C24.9327597,77.8804235 21.7387274,76.8599687 19.0336087,74.9990972 L19.0336087,74.9990972 L7.42611516,78.4382023 C6.04912246,78.8461821 4.94125122,77.2722312 5.78989727,76.1136302 L5.78989727,76.1136302 L12.743352,66.6205328 C12.2142818,65.0121357 11.9387269,63.3441476 11.9387269,61.6505212 L11.9387269,61.6505212 L11.9387269,60.7299023 C11.9387269,51.7977607 19.2857675,44.5 28.2680965,44.5 L28.2680965,44.5 Z M42.1706304,47.5 L28.2680965,47.5 C20.9381189,47.5 14.9387269,53.4591514 14.9387269,60.7299023 L14.9387269,60.7299023 L14.9387269,61.6505212 C14.9387269,63.2456332 15.2415492,64.8170538 15.8228554,66.3268667 C16.0062933,66.8033054 15.9348093,67.3403326 15.633129,67.752197 L15.633129,67.752197 L10.8382444,74.2983397 L18.8878226,71.913385 C19.3452951,71.7778436 19.8399637,71.8680277 20.220172,72.1562884 C22.5375906,73.9132748 25.3353596,74.8804235 28.2680965,74.8804235 L28.2680965,74.8804235 L42.1706304,74.8804235 C49.500608,74.8804235 55.5,68.9212721 55.5,61.6505212 L55.5,61.6505212 L55.5,60.7299023 C55.5,53.4591514 49.500608,47.5 42.1706304,47.5 L42.1706304,47.5 Z M76.7319035,12.5 C85.7142325,12.5 93.0612731,19.7977607 93.0612731,28.7299023 L93.0612731,29.6505212 C93.0612731,31.3441476 92.7857182,33.0121357 92.256648,34.6205328 L99.2101027,44.1136302 C100.058749,45.2722312 98.9508775,46.8461821 97.5738848,46.4382023 L85.9663913,42.9990972 C83.2612726,44.8599687 80.0672403,45.8804235 76.7319035,45.8804235 L62.8293696,45.8804235 C53.8470406,45.8804235 46.5,38.5826628 46.5,29.6505212 L46.5,28.7299023 C46.5,19.7977607 53.8470406,12.5 62.8293696,12.5 L76.7319035,12.5 Z M76.7319035,15.5 L62.8293696,15.5 C55.499392,15.5 49.5,21.4591514 49.5,28.7299023 L49.5,29.6505212 C49.5,36.9212721 55.499392,42.8804235 62.8293696,42.8804235 L76.7319035,42.8804235 C79.6646404,42.8804235 82.4624094,41.9132748 84.779828,40.1562884 C85.1600363,39.8680277 85.6547049,39.7778436 86.1121774,39.913385 L94.1617556,42.2983397 L89.366871,35.752197 C89.0651907,35.3403326 88.9937067,34.8033054 89.1771446,34.3268667 C89.7584508,32.8170538 90.0612731,31.2456332 90.0612731,29.6505212 L90.0612731,28.7299023 C90.0612731,21.4591514 84.0618811,15.5 76.7319035,15.5 Z" id="Combined-Shape"></path>
                </g>
            </g>
        </g>
    </g>
</svg>