<?xml version="1.0" encoding="UTF-8"?>
<svg width="105px" height="90px" viewBox="0 0 105 90" version="1.1" xmlns="http://www.w3.org/2000/svg" xmlns:xlink="http://www.w3.org/1999/xlink">
    <title>tab_menu/icon_chat_on</title>
    <g id="Page-1" stroke="none" stroke-width="1" fill="none" fill-rule="evenodd" stroke-linecap="round" stroke-linejoin="round">
        <g id="tab/select" transform="translate(-489.000000, -1617.000000)" fill="#4A4A4A" stroke="#4A4A4A" stroke-width="3">
            <g id="TAB" transform="translate(0.000000, 1611.000000)">
                <g id="tab_menu/icon_chat_off" transform="translate(489.000000, 6.000000)">
                    <g id="やりとり" transform="translate(7.000000, 14.000000)">
                        <path d="M35.1706304,32 L21.2680965,32 C13.1119432,32 6.4387269,38.628456 6.4387269,46.7299023 L6.4387269,47.6505212 C6.4387269,49.4871559 6.79741228,51.2409349 7.4230263,52.8658272 L0,63 L12.3139378,59.3515873 C14.8080523,61.2425385 17.9073906,62.3804235 21.2680965,62.3804235 L35.1706304,62.3804235 C43.3267837,62.3804235 50,55.7519675 50,47.6505212 L50,46.7299023 C50,38.628456 43.3267837,32 35.1706304,32 Z" id="Stroke-15"></path>
                        <path d="M55.8293696,0 L69.7319035,0 C77.8880568,0 84.5612731,6.62845603 84.5612731,14.7299023 L84.5612731,15.6505212 C84.5612731,17.4871559 84.2025877,19.2409349 83.5769737,20.8658272 L91,31 L78.6860622,27.3515873 C76.1919477,29.2425385 73.0926094,30.3804235 69.7319035,30.3804235 L55.8293696,30.3804235 C47.6732163,30.3804235 41,23.7519675 41,15.6505212 L41,14.7299023 C41,6.62845603 47.6732163,0 55.8293696,0 Z" id="Stroke-17"></path>
                    </g>
                </g>
            </g>
        </g>
    </g>
</svg>