<?xml version="1.0" encoding="UTF-8"?>
<svg width="105px" height="90px" viewBox="0 0 105 90" version="1.1" xmlns="http://www.w3.org/2000/svg" xmlns:xlink="http://www.w3.org/1999/xlink">
    <title>tab_menu/icon_friend_on</title>
    <defs>
        <polygon id="path-1" points="0 0.466021277 33.3092617 0.466021277 33.3092617 35.0631489 0 35.0631489"></polygon>
        <polygon id="path-3" points="0.0816319149 0.860314894 29.360383 0.860314894 29.360383 36.8555064 0.0816319149 36.8555064"></polygon>
    </defs>
    <g id="Page-1" stroke="none" stroke-width="1" fill="none" fill-rule="evenodd">
        <g id="tab/select" transform="translate(-57.000000, -1617.000000)">
            <g id="TAB" transform="translate(0.000000, 1611.000000)">
                <g id="さがすselected" transform="translate(57.000000, 6.000000)">
                    <g id="Group-11" transform="translate(4.000000, 17.000000)">
                        <path d="M39.1639277,27.9396957 C36.8578,31.8294617 36.7066298,34.2210787 37.3332043,35.1614617 C37.8899277,35.9975894 39.2358638,36.000717 40.2669489,35.8558021 C42.9233745,35.4825681 44.0138851,33.9062277 45.276417,32.080717 C46.8902894,29.7495681 48.7210128,27.1056532 53.9660979,28.1429936 C54.2319489,28.1961638 54.467566,28.3504617 54.6218638,28.5725255 C55.4089915,29.7099511 57.9298851,31.7085255 60.6009064,33.8249085 C64.9129064,37.2423979 68.4117149,40.1323553 70.2747574,42.6334404 C72.6882681,40.7109723 75.7710979,38.5466319 78.2846936,37.1631638 L65.9523319,11.7655255 C64.6679064,12.3118234 63.3198851,12.9185894 62.3722043,13.4325681 L61.8738638,13.7067596 C60.1818,14.6419298 58.0768851,15.8064617 52.311566,16.9386745 C50.0867574,17.3755043 47.8285872,18.1813979 45.6642468,19.2656532 C43.7125872,21.0421638 41.5284383,23.9508872 39.1639277,27.9396957" id="Fill-1" fill="#4A4A4A"></path>
                        <g id="Group-5" transform="translate(0.000000, 2.267345)">
                            <mask id="mask-2" fill="white">
                                <use xlink:href="#path-1"></use>
                            </mask>
                            <g id="Clip-4"></g>
                            <polygon id="Fill-3" fill="#4A4A4A" mask="url(#mask-2)" points="33.3092617 11.7078723 20.4629213 0.466021277 -0.000312765957 23.8484043 12.8147511 35.0631489"></polygon>
                        </g>
                        <path d="M69.6407809,46.3274149 C70.0400787,43.9660319 63.5804191,38.8470957 59.3049085,35.4587979 C56.6318021,33.3403298 54.2923128,31.4866702 53.178866,30.119883 C49.5747596,29.5256277 48.486334,31.1071809 46.9913128,33.2673511 C45.644334,35.2137979 44.1180362,37.4198404 40.5566745,37.920266 C37.617717,38.3341596 36.236334,37.2770106 35.5982915,36.3178617 C34.2742489,34.3307553 34.8872702,31.0654787 37.3695894,26.8765 C39.2659936,23.6779468 41.0727383,21.1226489 42.7637596,19.2377128 C41.1300787,18.6757766 39.1242064,18.2389468 37.3132915,18.1002872 C36.7784617,18.0596277 36.1226957,17.8709255 35.3970787,17.5508617 L35.0905681,16.9712021 L34.9404404,16.8575638 L16.7405894,37.598117 C19.3334191,39.5383085 22.6049511,43.7199894 25.5220149,47.4502447 C28.1148447,50.7655638 30.5638021,53.8973936 32.6395255,55.6937128 C33.3786957,56.3327979 34.0730362,56.9458191 34.7319298,57.5265213 C38.3131,60.6844149 40.9017596,62.9644787 43.8646957,63.6473511 C44.2556532,63.7380532 44.624717,63.7776702 44.9708447,63.7776702 C47.1049511,63.7776702 48.4216957,62.2482447 49.1775468,61.3683298 C49.2526106,61.2817979 49.3401851,61.1806702 49.4225468,61.087883 C54.207866,62.4942872 55.766483,58.5753298 56.4483128,56.8634574 C56.6130362,56.4464362 56.7704617,56.0533936 56.9080787,55.8219468 C57.0175468,55.7541809 57.4564617,55.7166489 57.7483766,55.6905851 C58.6793766,55.609266 60.0868234,55.4862447 61.3013979,54.2883511 C62.8256106,52.7849894 63.4052702,51.6996915 63.7013553,51.0053511 C66.3244191,51.1148191 68.7306319,48.6950532 69.6532915,46.7215 C69.6251426,46.5953511 69.6178447,46.4629468 69.6407809,46.3274149" id="Fill-6" fill="#4A4A4A"></path>
                        <g id="Group-10" transform="translate(67.765957, 0.182238)">
                            <mask id="mask-4" fill="white">
                                <use xlink:href="#path-3"></use>
                            </mask>
                            <g id="Clip-9"></g>
                            <polygon id="Fill-8" fill="#4A4A4A" mask="url(#mask-4)" points="15.5166319 0.860314894 0.0816319149 8.32708085 13.7036319 36.3801021 13.9548872 36.8555064 29.3606957 29.4784"></polygon>
                        </g>
                    </g>
                </g>
            </g>
        </g>
    </g>
</svg>