<?xml version="1.0" encoding="UTF-8"?>
<svg width="105px" height="90px" viewBox="0 0 105 90" version="1.1" xmlns="http://www.w3.org/2000/svg" xmlns:xlink="http://www.w3.org/1999/xlink">
    <title>tab_menu/icon_friend_off</title>
    <g id="Page-1" stroke="none" stroke-width="1" fill="none" fill-rule="evenodd">
        <g id="tab/unselect" transform="translate(-57.000000, -1617.000000)" fill="#4A4A4A">
            <g id="TAB" transform="translate(0.000000, 1611.000000)">
                <g id="さがすselected" transform="translate(57.000000, 6.000000)">
                    <path d="M86.5981381,17.0004569 L100.143646,44.9999371 L82.4674678,53.5508637 L81.8040872,52.1787463 C79.7069566,53.0661621 77.3030966,54.8040497 73.2716644,58.1600274 C73.6100597,59.0254901 73.7162633,59.850671 73.5786595,60.6645191 C73.1672194,63.0884006 70.1305961,66.0288252 67.3923336,65.909476 C67.2793588,66.175976 67.1539466,66.4317968 66.9963275,66.7059437 C66.5619875,67.4613909 65.9350614,68.2558466 65.0381314,69.1405255 C64.4133267,69.7560768 63.6980647,70.1252284 62.8783156,70.3197333 C62.4717646,70.4161972 62.1914299,70.4508605 61.5479626,70.5074107 C60.8389064,70.5697251 60.7608215,70.5969142 60.7200377,70.6636549 C60.6590576,70.763591 60.5842972,70.9169155 60.4903289,71.137753 C60.4499021,71.2327609 60.052349,72.2295552 59.9049622,72.5632934 C58.6413238,75.4246394 56.6482229,76.7700953 53.404197,75.7932952 C53.220232,76.0011155 52.8533647,76.4259672 52.7294477,76.5615903 C51.3683528,78.0512628 49.9323615,78.7584383 47.9727082,78.3073858 C47.6116683,78.2241631 47.2519659,78.115285 46.8915027,77.981019 C45.4573413,77.44682 44.0434403,76.5378432 42.2503564,75.0809854 C41.8392798,74.746991 40.9001021,73.9385155 39.9250736,73.0917974 L39.4082379,72.6423593 C38.2642943,71.6463236 37.1909624,70.703908 36.9897896,70.5254534 L36.9662272,70.5044569 L36.9564041,70.4955462 L36.9564041,70.4955462 L36.8824923,70.4309184 C36.8179366,70.37464 36.7544512,70.3188543 36.6918058,70.2632965 L36.506159,70.0970421 L36.506159,70.0970421 L36.3241693,69.9305664 C36.1736511,69.7913032 36.0255024,69.6501546 35.8761231,69.5029833 L35.6960469,69.3232222 C34.4281527,68.0409512 32.9718193,66.2169525 29.1932505,61.399048 C28.6286895,60.6791986 28.1680125,60.0963362 27.7261,59.54425 C24.9671852,56.0975074 22.9506724,53.9069112 21.3146424,52.7109944 L19.7790052,54.4674975 L5.00222719,41.536761 L25.0222039,18.659866 L39.798946,31.5917777 L38.7889078,32.7471223 C39.4605745,33.1126361 40.1057876,33.3909648 40.6942975,33.5562095 C41.0000399,33.6420573 41.2830293,33.69503 41.5385588,33.714526 C44.0349509,33.9046285 46.8160448,34.6459931 48.4987767,35.4926441 C50.8937672,34.1430573 53.5824042,33.0986681 56.2526739,32.5743807 C57.3212395,32.3646353 58.2914128,32.1478212 59.1741084,31.9234553 C62.3271823,31.1219986 63.0717883,30.7907332 66.1269041,29.133316 C66.6286082,28.8614743 67.2621798,28.5533802 68.0101922,28.2130181 C68.2558522,28.1012375 68.5125529,27.9865898 68.7791505,27.8694485 C69.1192462,27.7200127 69.4691414,27.5692308 69.824651,27.4185223 L68.9219303,25.5501912 L86.5981381,17.0004569 Z M36.7722272,35.0494569 L23.2978617,50.4469398 C25.1689048,51.8668098 27.2592043,54.1602227 30.0682023,57.6695349 C30.5172189,58.2304964 30.9836694,58.8206634 31.5538535,59.5476828 C35.6904897,64.8221449 36.9726663,66.4132254 38.2670456,67.6375148 L38.4325726,67.7920701 C38.4602452,67.8175824 38.4879784,67.8429926 38.5158001,67.8683325 L38.684011,68.0197853 C38.7688675,68.0953459 38.8550162,68.1708497 38.9432026,68.2471591 C45.1835068,73.6470135 46.0676963,74.4478279 46.911476,74.8056395 L46.9959161,74.8400979 C47.2500137,74.9399667 47.5164216,75.0124333 47.9386637,75.1697108 C48.1793897,75.2593768 48.4146469,75.3305867 48.6460924,75.3839369 C49.3383913,75.543283 49.8070837,75.3124684 50.5147012,74.5380047 C50.6186864,74.4241965 51.1543065,73.801702 51.3137648,73.632868 C51.7748762,73.1446445 52.1797612,72.8429598 52.7550606,72.7158629 C53.1283789,72.6333882 53.5139733,72.6567051 53.8798769,72.7904907 C55.7507196,73.4749155 56.4008393,73.0718664 57.1606624,71.3513453 C57.2808912,71.0791027 57.6681132,70.1082119 57.7298422,69.9631408 C57.8759227,69.6198334 58.0085775,69.3477745 58.1596465,69.1001986 C58.8664193,67.9435884 59.6811082,67.6599135 61.2853242,67.5189293 C61.7820872,67.475272 61.9693325,67.4521192 62.1857236,67.4007752 C62.497808,67.3267258 62.7219894,67.2110243 62.9320714,67.004054 C63.6427465,66.3030856 64.1022008,65.7208541 64.395546,65.2106392 C64.4970707,65.0340574 64.5739924,64.8748591 64.6467684,64.6992062 L64.6467684,64.6992062 L64.6887808,64.5935608 C64.7382276,64.4681174 64.8143942,64.2742187 64.8469932,64.1998014 C65.3291834,63.0990538 66.1406546,62.7960674 67.4968799,62.9106477 C68.5683196,63.0016095 70.4434604,61.2081979 70.6208048,60.1634259 C70.7938733,59.139823 69.3520536,57.1064687 66.4002423,54.3853678 C65.6340191,53.6790317 64.7838177,52.9364167 63.7399021,52.0543143 C63.5709192,51.9115248 60.3040379,49.1894842 59.4740092,48.4684642 C58.2703026,47.4228421 57.4195815,46.6089202 56.8347703,45.9039981 C54.2583103,45.4954293 53.2584958,46.1778137 51.5485168,48.6431178 L51.5485168,48.6431178 L51.2222212,49.1139668 C49.299296,51.8763132 47.7276243,53.1740654 44.7884948,53.58718 C38.2031757,54.5135385 37.0085057,49.0896946 41.1856047,42.0416485 C42.119615,40.4665798 43.6078288,38.9046933 45.4353012,37.504846 C44.210351,37.1276876 42.6982661,36.8115246 41.3105494,36.7058487 C40.8465657,36.6704484 40.3707668,36.5813839 39.8833057,36.4445121 C38.8606398,36.157363 37.8093193,35.6687817 36.7481295,35.036064 L36.7722272,35.0494569 Z M71.1331547,30.1223825 C70.7416469,30.2876436 70.3571323,30.4529213 69.9859708,30.6160073 C69.7308989,30.7280842 69.4860273,30.8374487 69.2526791,30.9436273 C68.5625991,31.2576288 67.9869061,31.5375776 67.556782,31.7706344 C67.4761664,31.8143689 66.6372322,32.2782927 66.3549019,32.4291166 C65.8242192,32.7126131 65.3308348,32.9567706 64.7913561,33.1967776 C63.4362219,33.799659 61.8791283,34.3312826 59.9131555,34.8309988 C58.9755362,35.0693254 57.9517466,35.2981216 56.8305871,35.5181905 C51.3789482,36.5885788 45.7741071,40.1854919 43.7662122,43.5715063 C40.6381077,48.8495772 41.1277566,51.0726002 44.3707637,50.6164056 C46.2961512,50.3457793 47.2681002,49.5432268 48.7600459,47.3999969 L48.7600459,47.3999969 L49.0834527,46.9333053 C51.5189875,43.4219556 53.5958329,42.1962948 57.9618021,43.0586341 L57.9618021,43.0586341 L58.5585496,43.1764999 L58.9046566,43.6767097 C59.2883551,44.2312485 60.1143528,45.050888 61.4413887,46.2036424 C62.2438162,46.900686 65.4862784,49.6023801 65.6761796,49.7628454 C66.7503572,50.6705191 67.6310671,51.439782 68.4336103,52.1795993 C69.7689106,53.4105339 70.8598636,54.5297907 71.6916932,55.5725096 C75.6817013,52.2646569 78.1457283,50.493365 80.4961138,49.474834 Z M25.3040983,22.893174 L9.2355417,41.2547679 L19.4970748,50.2343425 L35.5656674,31.8736179 L25.3040983,22.893174 Z M85.2039419,21.007312 L72.9290386,26.944511 L83.8616344,49.5438385 L96.1365673,43.6057874 L85.2039419,21.007312 Z" id="Combined-Shape"></path>
                </g>
            </g>
        </g>
    </g>
</svg>