<?xml version="1.0" encoding="UTF-8"?>
<svg width="105px" height="90px" viewBox="0 0 105 90" version="1.1" xmlns="http://www.w3.org/2000/svg" xmlns:xlink="http://www.w3.org/1999/xlink">
    <title>tab_menu/icon_group_off</title>
    <g id="Page-1" stroke="none" stroke-width="1" fill="none" fill-rule="evenodd">
        <g id="tab/unselect" transform="translate(-273.000000, -1617.000000)" fill="#4A4A4A">
            <g id="TAB" transform="translate(0.000000, 1611.000000)">
                <g id="tab_menu/icon_group_off" transform="translate(273.000000, 6.000000)">
                    <path d="M72.3194725,44.5 C82.8593033,44.5 91.5,52.8081144 91.5,63 L91.5,63 L88.5,63 C88.5,54.4918856 81.228222,47.5 72.3194725,47.5 C65.1791177,47.5 58.9348715,52.0337325 56.8610816,58.4308176 C61.5800732,63.2213115 64.5,69.785399 64.5,77 L64.5,77 L61.5,77 C61.5,64.0788467 50.9213012,53.5 38,53.5 C25.0786988,53.5 14.5,64.0788467 14.5,77 L14.5,77 L11.5,77 C11.5,62.4220019 23.4218352,50.5 38,50.5 C44.2064595,50.5 49.9314546,52.6608833 54.460008,56.267634 C57.2980254,49.2967657 64.3439703,44.5 72.3194725,44.5 Z M37,15.5 C45.560599,15.5 52.5,22.439401 52.5,31 C52.5,39.560599 45.560599,46.5 37,46.5 C28.439401,46.5 21.5,39.560599 21.5,31 C21.5,22.439401 28.439401,15.5 37,15.5 Z M37,18.5 C30.0962552,18.5 24.5,24.0962552 24.5,31 C24.5,37.9037448 30.0962552,43.5 37,43.5 C43.9037448,43.5 49.5,37.9037448 49.5,31 C49.5,24.0962552 43.9037448,18.5 37,18.5 Z M72.000464,17.5 C78.3511078,17.5 83.5,22.6491311 83.5,29 C83.5,35.3514979 78.3514067,40.5 72.000464,40.5 C65.6487583,40.5 60.5,35.3516629 60.5,29 C60.5,22.6489661 65.6490573,17.5 72.000464,17.5 Z M72.000464,20.5 C67.3058996,20.5 63.5,24.3058323 63.5,29 C63.5,33.6947537 67.3055576,37.5 72.000464,37.5 C76.6945644,37.5 80.5,33.6946317 80.5,29 C80.5,24.3059542 76.6942224,20.5 72.000464,20.5 Z" id="Combined-Shape"></path>
                </g>
            </g>
        </g>
    </g>
</svg>