<?xml version="1.0" encoding="UTF-8"?>
<svg width="105px" height="90px" viewBox="0 0 105 90" version="1.1" xmlns="http://www.w3.org/2000/svg" xmlns:xlink="http://www.w3.org/1999/xlink">
    <title>tab_menu/icon/icon_marche_on</title>
    <g id="Page-1" stroke="none" stroke-width="1" fill="none" fill-rule="evenodd">
        <g id="tab/select" transform="translate(-921.000000, -1617.000000)" fill="#4A4A4A">
            <g id="TAB" transform="translate(0.000000, 1611.000000)">
                <g id="tab_menu/icon_ansin_off" transform="translate(921.000000, 6.000000)">
                    <path d="M13.5,9.3 C13.5,8.42984162 14.2344148,7.75270546 15.0846955,7.80225453 L15.219823,7.81619481 L20.754823,8.63619481 L20.9986445,8.6805863 C23.5200797,9.1500292 25.5169822,11.0919674 26.0610916,13.6017311 L26.1091809,13.8463537 L33.6101828,56.3573642 C34.1732421,59.5485667 36.8891953,61.8955557 40.1056232,62.0124316 L40.354,62.017 L73.179,62.017 C74.0074271,62.017 74.679,62.6885729 74.679,63.517 C74.679,64.2966961 74.0841119,64.9374487 73.32346,65.0101334 L73.179,65.017 L40.3532596,65.017 C35.665357,65.0146859 31.6436612,61.7155897 30.707321,57.1487319 L30.6558191,56.8786463 L23.1548462,14.3677999 C22.9121757,12.9933302 21.855169,11.9158847 20.5048721,11.6407189 L20.3189717,11.6082165 L20.228,11.59 L14.7149651,10.7739528 C14.0689918,10.6496879 13.5704657,10.1110304 13.5068666,9.44546001 L13.5,9.3 Z" id="Stroke-1" stroke="#4A4A4A" fill-rule="nonzero"></path>
                    <path d="M42.0025187,68 C45.5921387,68 48.503,70.9120224 48.503,74.5014438 C48.503,78.0905824 45.5924214,81 42.0025187,81 C38.4127104,81 35.503,78.0906766 35.503,74.5014438 C35.503,70.9119279 38.4129928,68 42.0025187,68 Z M65.0807187,68 C68.6703387,68 71.5812,70.9120224 71.5812,74.5014438 C71.5812,78.0905824 68.6706214,81 65.0807187,81 C61.4902356,81 58.5812,78.0909644 58.5812,74.5014438 C58.5812,70.9116398 61.4905179,68 65.0807187,68 Z M25.8616593,18.0004372 L26.0062473,18.0036269 L75.843552,21.4756922 C78.3961751,21.678071 80.7350557,22.9832528 82.2489216,25.048383 C83.6999364,27.0285099 84.2560388,29.5190604 83.7927925,31.9179923 L83.726578,32.2303274 L80.4967798,46.2244519 C79.597097,50.1332964 76.1735111,52.9264125 72.1856705,53.046005 L71.919,53.05 L31.556,53.05 C30.7275729,53.05 30.056,52.3784271 30.056,51.55 C30.056,50.7703039 24.3480527,20.2221768 24.4056269,19.3957527 C24.4598143,18.6179419 25.0977952,18.0200822 25.8616593,18.0004372 Z" id="Combined-Shape"></path>
                </g>
            </g>
        </g>
    </g>
</svg>