<?xml version="1.0" encoding="UTF-8"?>
<svg width="120px" height="120px" viewBox="0 0 120 120" version="1.1" xmlns="http://www.w3.org/2000/svg" xmlns:xlink="http://www.w3.org/1999/xlink">
    <!-- Generator: Sketch 56.2 (81672) - https://sketch.com -->
    <title>app_bar/icon_circle_filter</title>
    <desc>Created with Sketch.</desc>
    <g id="Page-1" stroke="none" stroke-width="1" fill="none" fill-rule="evenodd">
        <g id="Nakama" transform="translate(-822.000000, -150.000000)">
            <g id="greeting_nakama" transform="translate(0.000000, 132.000000)">
                <g id="Appbar/icon_filter_circle" transform="translate(822.000000, 18.000000)">
                    <circle id="Oval" fill="#73AE50" opacity="0.9" cx="60" cy="60" r="60
"></circle>
                    <path d="M74.1757231,70.2259756 L90.4748737,86.5251263 C91.8417088,87.8919613 91.8417088,90.1080387 90.4748737,91.4748737 C89.1080387,92.8417088 86.8919613,92.8417088 85.5251263,91.4748737 L69.1006596,75.0504071 C64.4555803,78.4756395 58.7141975,80.5 52.5,80.5 C37.036027,80.5 24.5,67.963973 24.5,52.5 C24.5,37.036027 37.036027,24.5 52.5,24.5 C67.963973,24.5 80.5,37.036027 80.5,52.5 C80.5,59.226123 78.1283677,65.3983215 74.1757231,70.2259756 Z M52.5,73.5 C64.0979797,73.5 73.5,64.0979797 73.5,52.5 C73.5,40.9020203 64.0979797,31.5 52.5,31.5 C40.9020203,31.5 31.5,40.9020203 31.5,52.5 C31.5,64.0979797 40.9020203,73.5 52.5,73.5 Z" id="Combined-Shape" fill="#FFFFFF"></path>
                </g>
            </g>
        </g>
    </g>
</svg>