<?xml version="1.0" encoding="UTF-8"?>
<svg width="72px" height="51px" viewBox="0 0 72 51" version="1.1" xmlns="http://www.w3.org/2000/svg" xmlns:xlink="http://www.w3.org/1999/xlink">
    <!-- Generator: Sketch 57 (83077) - https://sketch.com -->
    <title>profile_icon_group_gray</title>
    <desc>Created with Sketch.</desc>
    <g id="Page-1" stroke="none" stroke-width="1" fill="none" fill-rule="evenodd">
        <g id="マイページ-プレビュー" transform="translate(-48.000000, -2404.000000)" fill="#8A9185">
            <g id="参加しているグループ" transform="translate(0.000000, 2396.000000)">
                <g id="title-copy-4" transform="translate(48.000000, 0.000000)">
                    <g id="icon/title/group-icon" transform="translate(0.000000, 8.000000)">
                        <g id="Group" transform="translate(7.000000, 3.000000)">
                            <path d="M41.3813676,21 C48.8524557,21 55,26.8202192 55,34 C55,35.1045695 54.1045695,36 53,36 C51.8954305,36 51,35.1045695 51,34 C51,29.0797808 46.6907752,25 41.3813676,25 C37.1443014,25 33.4645567,27.622815 32.2152225,31.2791548 C35.1870662,34.6553664 37,39.1222889 37,44 C37,45.1045695 36.1045695,46 35,46 C33.8954305,46 33,45.1045695 33,44 C33,35.7417112 26.4566659,29 18.5,29 C10.5433341,29 4,35.7417112 4,44 C4,45.1045695 3.1045695,46 2,46 C0.8954305,46 0,45.1045695 0,44 C0,33.5588658 8.3070183,25 18.5,25 C22.4296719,25 26.0790307,26.2721148 29.080141,28.4337661 C31.2930468,23.9955813 36.04,21 41.3813676,21 Z M18.5,0 C24.8514004,0 30,5.14859958 30,11.5 C30,17.8514004 24.8514004,23 18.5,23 C12.1485996,23 7,17.8514004 7,11.5 C7,5.14859958 12.1485996,0 18.5,0 Z M41.0003248,2 C45.9704558,2 50,6.02973115 50,11 C50,15.9707228 45.9706515,20 41.0003248,20 C36.0294777,20 32,15.9708519 32,11 C32,6.02960201 36.0296733,2 41.0003248,2 Z M18.5,4 C14.3577386,4 11,7.35773858 11,11.5 C11,15.6422614 14.3577386,19 18.5,19 C22.6422614,19 26,15.6422614 26,11.5 C26,7.35773858 22.6422614,4 18.5,4 Z M41.0003248,6 C38.2387965,6 36,8.23875686 36,11 C36,13.7616397 38.2385434,16 41.0003248,16 C43.7615283,16 46,13.7615679 46,11 C46,8.23882861 43.7612753,6 41.0003248,6 Z" id="Combined-Shape"></path>
                        </g>
                    </g>
                </g>
            </g>
        </g>
    </g>
</svg>