<?xml version="1.0" encoding="UTF-8"?>
<svg width="72px" height="51px" viewBox="0 0 72 51" version="1.1" xmlns="http://www.w3.org/2000/svg" xmlns:xlink="http://www.w3.org/1999/xlink">
    <!-- Generator: Sketch 57 (83077) - https://sketch.com -->
    <title>profile_icon_introduce</title>
    <desc>Created with Sketch.</desc>
    <g id="Page-1" stroke="none" stroke-width="1" fill="none" fill-rule="evenodd">
        <g id="マイページ-編集" transform="translate(-48.000000, -1921.000000)" fill="#8A9185">
            <g id="つぶやき" transform="translate(0.000000, 1913.000000)">
                <g id="title" transform="translate(48.000000, 0.000000)">
                    <g id="icon/title/inttoduce" transform="translate(0.000000, 8.000000)">
                        <path d="M29.6841274,3.33871786 C40.6158512,1.35333885 51.1132122,8.29035347 54.0207829,19.1452206 L54.0207829,19.1452206 L59.1121735,22.5517568 C60.5065161,23.4846804 60.2017855,25.6163885 58.6019046,26.1212837 L58.6019046,26.1212837 L54.6915567,27.355323 C54.4589787,29.5766671 53.8987494,31.7415806 53.0326404,33.7821956 C52.6826756,34.6067379 51.8271533,35.0980368 50.9386114,34.9847291 L50.9386114,34.9847291 L46.8526407,34.4636822 L48.9946683,37.8736035 C49.4793303,38.6451432 49.3812614,39.6467396 48.7561516,40.3096185 C45.6401747,43.6138631 41.6180345,45.8467406 37.1354406,46.6607871 C25.4724993,48.7793643 14.3715266,40.769026 12.3266007,28.8082362 C10.2829077,16.8632834 18.0367887,5.45423206 29.6841274,3.33871786 Z M50.3179409,20.8267933 C48.1893829,11.5794076 39.4611962,5.62847674 30.3989274,7.27433229 C20.934307,8.99339785 14.5913597,18.326403 16.2693505,28.1339043 C17.943523,37.9261537 26.9725748,44.441417 36.420631,42.7251744 C39.5460364,42.1575956 42.3959682,40.7374358 44.7487068,38.6341756 L44.7487068,38.6341756 L41.2147096,33.0083601 C40.3162209,31.5780443 41.4857389,29.7468978 43.1612783,29.9605641 L43.1612783,29.9605641 L49.8791956,30.8172394 C50.4153386,29.1977692 50.7267032,27.5012622 50.7983875,25.7731947 C50.833294,24.9317169 51.391608,24.2022722 52.1947643,23.9488097 L52.1947643,23.9488097 L53.4262335,23.560179 L51.1548014,22.0404142 C50.7314937,21.7571885 50.4321883,21.3231337 50.3179409,20.8267933 Z M40.5,17 C41.88,17 43,18.12 43,19.5 C43,20.88 41.88,22 40.5,22 C39.12,22 38,20.88 38,19.5 C38,18.12 39.12,17 40.5,17 Z" id="Combined-Shape"></path>
                    </g>
                </g>
            </g>
        </g>
    </g>
</svg>