<?xml version="1.0" encoding="UTF-8"?>
<svg width="72px" height="51px" viewBox="0 0 72 51" version="1.1" xmlns="http://www.w3.org/2000/svg" xmlns:xlink="http://www.w3.org/1999/xlink">
    <!-- Generator: Sketch 57 (83077) - https://sketch.com -->
    <title>profile_icon_diary</title>
    <desc>Created with Sketch.</desc>
    <g id="Page-1" stroke="none" stroke-width="1" fill="none" fill-rule="evenodd">
        <g id="マイページ-プレビュー" transform="translate(-48.000000, -2964.000000)" fill="#8A9185">
            <g id="参加しているグループ-copy" transform="translate(0.000000, 2955.000000)">
                <g id="title-copy-4" transform="translate(48.000000, 1.000000)">
                    <g id="icon/title/diary-icon" transform="translate(0.000000, 8.000000)">
                        <path d="M52.0312164,3 C53.1185456,3 54,3.9011678 54,5.01281463 L54,5.01281463 L54,45.9871854 C54,47.0988322 53.1185456,48 52.0312164,48 L52.0312164,48 L19.9687836,48 C18.8814544,48 18,47.0988322 18,45.9871854 L18,45.9871854 L18,5.01281463 C18,3.9011678 18.8814544,3 19.9687836,3 L19.9687836,3 Z M50.0624329,7.02562925 L21.9375671,7.02562925 L21.9375671,43.9743707 L50.0624329,43.9743707 L50.0624329,7.02562925 Z M44.0508312,12 C44.5750427,12 45,12.4844463 45,13.0820412 L45,13.0820412 L45,19.9179588 C45,20.5155537 44.5750427,21 44.0508312,21 L44.0508312,21 L27.9491688,21 C27.4249573,21 27,20.5155537 27,19.9179588 L27,19.9179588 L27,13.0820412 C27,12.4844463 27.4249573,12 27.9491688,12 L27.9491688,12 Z M43.1016624,14.1640824 L28.8983376,14.1640824 L28.8983376,18.8359176 L43.1016624,18.8359176 L43.1016624,14.1640824 Z" id="Combined-Shape"></path>
                    </g>
                </g>
            </g>
        </g>
    </g>
</svg>