<?xml version="1.0" encoding="UTF-8"?>
<svg width="120px" height="120px" viewBox="0 0 120 120" version="1.1" xmlns="http://www.w3.org/2000/svg" xmlns:xlink="http://www.w3.org/1999/xlink">
    <!-- Generator: Sketch 56.2 (81672) - https://sketch.com -->
    <title>list_icon_hometown</title>
    <desc>Created with Sketch.</desc>
    <g id="Symbols" stroke="none" stroke-width="1" fill="none" fill-rule="evenodd">
        <g id="icon/list/list_icon_hometown" fill="#6D6D6D" fill-rule="nonzero">
            <path d="M60.2990096,83.7853498 L61.5611967,81.856268 C61.6879937,81.6624761 61.6879937,81.6624761 62.2584155,80.7904671 C62.8129813,79.9426428 63.4309221,78.9977617 64.0963954,77.9799879 C65.9977602,75.0720436 67.8991306,72.1625179 69.6737805,69.4447012 L69.6985304,69.4067974 C73.7571848,63.191053 76.5352321,58.9242747 77.4632604,57.4748097 C80.2539022,53.1134319 81.869,48.6355326 81.869,44.184 C81.869,32.2082406 72.1600949,22.5 60.185,22.5 C48.2090712,22.5 38.5,32.2080745 38.5,44.184 C38.5,48.6345843 40.1149003,53.1111985 42.9053468,57.4741959 C43.8337679,58.9242747 46.6118152,63.191053 50.6704696,69.4067974 L50.6952195,69.4447012 C52.4698694,72.1625179 54.3712398,75.0720436 56.2726046,77.9799879 C56.9380779,78.9977617 57.5560187,79.9426428 58.1105845,80.7904671 C58.6810063,81.6624761 58.6810063,81.6624761 58.8078033,81.856268 L60.0648142,83.7774387 L60.1798238,83.6011536 L60.2990096,83.7853498 Z M59.7478039,79.1482645 C59.1775008,80.020092 59.1775008,80.020092 59.0508033,80.213732 L60.1845,80.9555032 L61.3181967,80.213732 C61.1914992,80.020092 61.1914992,80.020092 60.6211961,79.1482645 C60.4796715,78.9319007 60.3340183,78.709214 60.1845,78.4806063 C60.0349817,78.709214 59.8893285,78.9319007 59.7478039,79.1482645 Z M60.1901762,78.0948464 L60.0613491,78.2923109 C59.6603184,77.6791343 59.2327455,77.0252946 58.7835069,76.3382297 C56.8824553,73.4307645 54.9814093,70.5217353 53.2071372,67.804497 L53.1823935,67.7666028 C49.1310677,61.5620821 46.3530443,57.2953403 45.4322604,55.8571903 C42.9254971,51.937745 41.5,47.9861693 41.5,44.184 C41.5,33.8649977 49.8658565,25.5 60.185,25.5 C70.5032866,25.5 78.869,33.8651408 78.869,44.184 C78.869,47.9871246 77.4434013,51.9396329 74.9365087,55.857551 C74.0159557,57.2953403 71.2379323,61.5620821 67.1866065,67.7666028 L67.1618628,67.804497 C65.3875907,70.5217353 63.4865447,73.4307645 61.5854931,76.3382297 C61.1381866,77.0223397 60.7123598,77.6735096 60.3128267,78.2843971 L60.1901762,78.0948464 Z" id="Stroke-1"></path>
            <path d="M69,45 C69,49.9702847 64.9702847,54 60,54 C55.0290413,54 51,49.9706108 51,45 C51,40.0293892 55.0290413,36 60,36 C64.9702847,36 69,40.0297153 69,45 Z M67,45 C67,41.1342847 63.8657153,38 60,38 C56.1336494,38 53,41.13392 53,45 C53,48.86608 56.1336494,52 60,52 C63.8657153,52 67,48.8657153 67,45 Z" id="Stroke-3"></path>
            <path d="M28.8972374,91.88 L37.7864151,77.4903318 C38.0913372,76.9965481 38.9814217,76.5 39.5612753,76.5 L56.0948216,76.5 L56.0948216,73.5 L39.5612753,73.5 C37.941218,73.5 36.0852602,74.535376 35.2340066,75.9138768 L25.9821354,90.8906682 C24.7852956,92.8254553 25.9325414,94.88 28.2072753,94.88 L92.3332753,94.88 C94.6065385,94.88 95.7520817,92.8270134 94.5591535,90.8918646 L92.245127,87.1463565 L85.305377,75.9136065 C84.4542903,74.535376 82.5983326,73.5 80.9782753,73.5 L64.3502783,73.5 L64.3502783,76.5 L80.9782753,76.5 C81.5581288,76.5 82.4482134,76.9965481 82.7530066,77.4901232 L89.6929235,88.7231435 L91.6432736,91.88 L28.8972374,91.88 Z" id="Stroke-5"></path>
        </g>
    </g>
</svg>