<?xml version="1.0" encoding="UTF-8"?>
<svg width="144px" height="90px" viewBox="0 0 144 90" version="1.1" xmlns="http://www.w3.org/2000/svg" xmlns:xlink="http://www.w3.org/1999/xlink">
    <!-- Generator: Sketch 57 (83077) - https://sketch.com -->
    <title>nakama/matching_color</title>
    <desc>Created with Sketch.</desc>
    <defs>
        <rect id="path-1" x="0" y="0" width="144" height="90"></rect>
        <polygon id="path-3" points="0.571129717 0.262 80.0162674 0.262 80.0162674 85.9998 0.571129717 85.9998"></polygon>
        <polygon id="path-5" points="0.884704496 0.0885668959 17.48 0.0885668959 17.48 37.0906 0.884704496 37.0906"></polygon>
    </defs>
    <g id="Page-1" stroke="none" stroke-width="1" fill="none" fill-rule="evenodd">
        <g id="Top-Nakama" transform="translate(-858.000000, -1437.000000)">
            <g id="nakama/user" transform="translate(27.000000, 726.000000)">
                <g id="nakama/matching_color" transform="translate(831.000000, 711.000000)">
                    <g id="Group-10-+-Group-11-Mask">
                        <mask id="mask-2" fill="white">
                            <use xlink:href="#path-1"></use>
                        </mask>
                        <g id="Mask"></g>
                    </g>
                    <g id="Group-15" transform="translate(10.000000, 2.000000)">
                        <g id="Group-3" transform="translate(24.000000, 0.738300)">
                            <mask id="mask-4" fill="white">
                                <use xlink:href="#path-3"></use>
                            </mask>
                            <g id="Clip-2"></g>
                            <path d="M51.4789,5.3088 C52.3449,5.9338 52.9159,6.7668 53.1709,7.7808 C53.5729,9.3758 53.1789,11.3228 52.1199,12.9898 L36.9479,36.8718 C36.6689,37.3168 36.7849,37.9028 37.2289,38.2198 C37.3929,38.3298 37.5719,38.3888 37.7619,38.3928 C38.1249,38.3928 38.4389,38.2288 38.6269,37.9328 L56.7469,9.4128 C57.9449,7.5228 60.1599,5.1588 62.4589,4.7198 C63.6639,4.4908 64.8569,4.7918 66.0009,5.6168 C67.0289,6.3628 67.6189,7.3178 67.8039,8.5368 C68.0609,10.2238 67.6249,13.2338 64.0839,17.9928 L63.7979,18.4458 C63.4409,18.8728 63.1729,19.2358 62.9639,19.5748 L46.2269,43.3528 C45.9139,43.7968 46.0159,44.4148 46.4619,44.7368 C46.9089,45.0518 47.5309,44.9458 47.8509,44.4968 L64.6039,20.7008 C65.7449,18.8058 67.7469,17.3778 69.5829,17.1468 C70.6859,17.0158 71.6659,17.2698 72.5769,17.9278 C72.8009,18.0888 73.0259,18.2808 73.2439,18.4968 C74.0009,19.2458 75.4299,21.4548 72.3369,25.7728 L55.6789,49.1808 C55.3659,49.6238 55.4679,50.2438 55.9059,50.5588 C56.0699,50.6778 56.2639,50.7438 56.4699,50.7478 C56.7999,50.7428 57.1129,50.5968 57.3009,50.3288 L67.9909,35.3048 L68.1949,35.0798 C70.7089,32.0468 72.9359,32.4608 74.3659,33.3418 C74.4539,33.3948 74.5369,33.4518 74.6169,33.5088 C75.2839,33.9908 75.7079,34.6338 75.8759,35.4218 C76.1039,36.4698 76.0679,38.8438 73.2879,42.9698 C72.4869,44.1208 53.5979,71.2278 46.6599,77.0148 C40.9869,81.7438 35.0359,83.0518 28.4649,81.0168 C25.2179,80.0118 21.8389,78.2798 18.6929,76.0108 C14.3399,72.8718 11.1129,68.9978 10.2689,65.9028 C9.5549,63.2878 9.4269,61.2348 9.3239,59.5848 C9.2919,59.0818 9.2629,58.6118 9.2209,58.1678 C9.1299,57.2218 9.0369,54.9148 8.9159,51.9948 C8.7979,49.0928 8.6499,45.4808 8.4529,41.9038 C8.0999,35.5528 6.4739,30.3118 5.3989,26.8438 C5.1589,26.0698 4.9449,25.3798 4.7779,24.7808 C4.1329,22.4778 5.6329,20.8168 6.5409,20.4778 C7.8599,19.9858 10.1249,20.6528 11.4159,21.5838 C13.1689,22.8478 14.3359,25.4128 14.8869,29.2058 C15.3059,32.0918 16.9229,38.5098 16.9989,38.8038 C17.0709,39.0578 17.3749,39.9328 18.2339,40.5538 C18.7289,40.9108 19.3279,41.1198 20.0169,41.1758 C21.0579,41.2538 22.8699,40.7168 26.5829,35.0768 L43.1539,8.1208 C45.1339,4.6608 48.2029,3.4298 50.9689,4.9848 C51.1499,5.0858 51.3199,5.1948 51.4789,5.3088 M79.8339,34.5648 C79.4569,32.7988 78.4709,31.2948 76.9849,30.2248 C76.8329,30.1128 76.6589,29.9958 76.4729,29.8838 C75.9759,29.5768 75.4559,29.3248 74.9199,29.1298 L75.6369,28.1218 C80.6759,21.0868 77.2579,16.7718 76.0919,15.6168 C75.7239,15.2538 75.3379,14.9258 74.9449,14.6418 C73.8379,13.8448 72.5919,13.3368 71.2899,13.1478 C71.8789,11.2838 72.0529,9.5398 71.8079,7.9278 C71.4609,5.6478 70.2759,3.7148 68.3789,2.3388 C66.7719,1.1798 65.0469,0.5948 63.2479,0.5948 C62.7349,0.5948 62.2149,0.6438 61.7029,0.7408 C59.3149,1.1968 57.3329,2.6368 55.8749,4.0818 C55.3329,3.2968 54.6529,2.6038 53.8479,2.0238 C53.5629,1.8188 53.2619,1.6268 52.9519,1.4528 C51.5449,0.6628 50.0559,0.2618 48.5269,0.2618 C45.0179,0.2618 41.7909,2.3738 39.6659,6.0578 L24.9479,30.0088 L23.1629,32.9058 C21.9969,34.6748 21.1429,35.7308 20.5629,36.3548 C19.9469,33.8238 19.1439,30.3428 18.8949,28.6248 C18.1719,23.6358 16.4999,20.2588 13.7859,18.2998 C12.4179,17.3138 10.0749,16.2628 7.5879,16.2628 C6.6999,16.2628 5.8699,16.4048 5.1209,16.6848 C2.1529,17.7948 -0.3131,21.6238 0.8769,25.8738 C1.0509,26.4948 1.2719,27.2078 1.5199,28.0088 C2.5469,31.3218 4.0839,36.2748 4.4089,42.1288 C4.6099,45.7708 4.7599,49.4638 4.8699,52.1598 C4.9979,55.2698 5.0879,57.4988 5.1889,58.5528 C5.2249,58.9298 5.2499,59.3298 5.2759,59.7558 L5.2819,59.8418 C5.3889,61.5708 5.5379,63.9468 6.3619,66.9708 C7.4549,70.9758 11.1779,75.5838 16.3239,79.2958 C19.8219,81.8188 23.6059,83.7518 27.2679,84.8858 C29.6519,85.6248 32.0189,85.9998 34.3019,85.9998 C39.6219,85.9998 44.5119,84.0788 49.2529,80.1258 C56.5199,74.0638 74.5809,48.2058 76.6159,45.2778 C79.4059,41.1388 80.4809,37.5468 79.8339,34.5648" id="Fill-1" fill="#616161" mask="url(#mask-4)"></path>
                        </g>
                        <path d="M1.8627,33.1145 C1.1457,33.1145 0.5117,32.5995 0.3857,31.8695 C0.1307,30.3825 0.0007,28.8885 0.0007,27.4295 C0.0007,14.2335 9.8767,3.1475 22.9717,1.6415 C23.7767,1.5435 24.5397,2.1375 24.6337,2.9605 C24.7277,3.7835 24.1367,4.5275 23.3137,4.6225 C11.7337,5.9535 3.0007,15.7585 3.0007,27.4295 C3.0007,28.7185 3.1157,30.0405 3.3427,31.3595 C3.4837,32.1765 2.9357,32.9515 2.1197,33.0925 C2.0337,33.1075 1.9477,33.1145 1.8627,33.1145" id="Fill-4" fill="#616161"></path>
                        <path d="M10.3851,33.115 C9.7231,33.115 9.1161,32.673 8.9371,32.003 C8.5271,30.472 8.3191,28.933 8.3191,27.43 C8.3191,18.861 14.4441,11.559 22.8821,10.068 C23.6921,9.923 24.4761,10.468 24.6201,11.284 C24.7641,12.1 24.2201,12.878 23.4041,13.022 C16.4021,14.26 11.3191,20.319 11.3191,27.43 C11.3191,28.671 11.4921,29.948 11.8351,31.226 C12.0491,32.026 11.5741,32.849 10.7751,33.063 C10.6451,33.098 10.5141,33.115 10.3851,33.115" id="Fill-6" fill="#616161"></path>
                        <g id="Group-10" transform="translate(105.000000, 48.738300)">
                            <mask id="mask-6" fill="white">
                                <use xlink:href="#path-5"></use>
                            </mask>
                            <g id="Clip-9"></g>
                            <path d="M2.3861,37.0906 C1.8351,37.0906 1.3051,36.7856 1.0421,36.2586 C0.6731,35.5176 0.9751,34.6166 1.7161,34.2476 C2.9151,33.6496 4.0501,32.9606 5.0861,32.1996 C14.4991,25.2976 17.2421,12.4566 11.4681,2.3306 C11.0571,1.6116 11.3081,0.6946 12.0281,0.2846 C12.7471,-0.1234 13.6631,0.1256 14.0741,0.8446 C20.6041,12.2956 17.5031,26.8146 6.8611,34.6176 C5.6881,35.4796 4.4071,36.2586 3.0541,36.9326 C2.8391,37.0396 2.6111,37.0906 2.3861,37.0906" id="Fill-8" fill="#616161" mask="url(#mask-6)"></path>
                        </g>
                        <path d="M102.3461,78.9568 C101.7461,78.9568 101.1791,78.5938 100.9491,78.0008 C100.6481,77.2288 101.0301,76.3588 101.8021,76.0588 C103.0351,75.5788 104.1671,74.9628 105.1681,74.2288 C110.9031,70.0238 112.7841,62.3428 109.6411,55.9638 C109.2751,55.2208 109.5801,54.3218 110.3241,53.9558 C111.0671,53.5898 111.9661,53.8948 112.3321,54.6378 C116.1191,62.3248 113.8531,71.5818 106.9421,76.6488 C105.7311,77.5368 104.3671,78.2788 102.8901,78.8538 C102.7111,78.9238 102.5281,78.9568 102.3461,78.9568" id="Fill-11" fill="#616161"></path>
                        <path d="M102.3461,78.9568 C101.7461,78.9568 101.1791,78.5938 100.9491,78.0008 C100.6481,77.2288 101.0301,76.3588 101.8021,76.0588 C103.0351,75.5788 104.1671,74.9628 105.1681,74.2288 C110.9031,70.0238 112.7841,62.3428 109.6411,55.9638 C109.2751,55.2208 109.5801,54.3218 110.3241,53.9558 C111.0671,53.5898 111.9661,53.8948 112.3321,54.6378 C116.1191,62.3248 113.8531,71.5818 106.9421,76.6488 C105.7311,77.5368 104.3671,78.2788 102.8901,78.8538 C102.7111,78.9238 102.5281,78.9568 102.3461,78.9568" id="Fill-13" fill="#616161"></path>
                    </g>
                </g>
            </g>
        </g>
    </g>
</svg>