<?xml version="1.0" encoding="UTF-8"?>
<svg width="27px" height="33px" viewBox="0 0 27 33" version="1.1" xmlns="http://www.w3.org/2000/svg" xmlns:xlink="http://www.w3.org/1999/xlink">
    <!-- Generator: Sketch 57 (83077) - https://sketch.com -->
    <title>icon/group_participant</title>
    <desc>Created with Sketch.</desc>
    <g id="Page-1" stroke="none" stroke-width="1" fill="none" fill-rule="evenodd">
        <g id="グループ/参加中" transform="translate(-408.000000, -918.000000)">
            <g id="Group/sumnail-Copy" transform="translate(386.000000, 615.000000)">
                <g id="icon/group_participant" transform="translate(22.000000, 303.000000)">
                    <g id="Group-17" transform="translate(3.000000, 3.000000)">
                        <path d="M0,27 C0,20.9499621 4.72496382,16 10.5,16 C16.2743125,16 21,20.9499621 21,27 L0,27 Z" id="Stroke-11" stroke="#6D6D6D" stroke-width="3" stroke-linecap="round" stroke-linejoin="round"></path>
                        <path d="M17,6 C17,9.3138899 14.3138899,12 11,12 C7.68683923,12 5,9.3138899 5,6 C5,2.68683923 7.68683923,0 11,0 C14.3138899,0 17,2.68683923 17,6 Z" id="Stroke-15" stroke="#6D6D6D" stroke-width="3" stroke-linecap="round" stroke-linejoin="round"></path>
                        <path d="M0,27 C0,20.9499621 4.72496382,16 10.5,16 C16.2743125,16 21,20.9499621 21,27 L0,27 Z" id="Fill-9" stroke="#6D6D6D" fill="#6D6D6D"></path>
                        <path d="M17,6 C17,9.3138899 14.3138899,12 11,12 C7.68683923,12 5,9.3138899 5,6 C5,2.68683923 7.68683923,0 11,0 C14.3138899,0 17,2.68683923 17,6" id="Fill-13" fill="#6D6D6D"></path>
                    </g>
                </g>
            </g>
        </g>
    </g>
</svg>