<?xml version="1.0" encoding="UTF-8"?>
<svg width="98px" height="98px" viewBox="0 0 98 98" version="1.1" xmlns="http://www.w3.org/2000/svg" xmlns:xlink="http://www.w3.org/1999/xlink">
    <!-- Generator: Sketch 57 (83077) - https://sketch.com -->
    <title>floating_btn_diary</title>
    <desc>Created with Sketch.</desc>
    <g id="Page-1" stroke="none" stroke-width="1" fill="none" fill-rule="evenodd">
        <g id="日記-top-下タブあり" transform="translate(-890.000000, -1661.000000)" fill="#FFFFFF">
            <g id="bt/floadting/diary" transform="translate(846.000000, 1617.000000)">
                <g id="newpost_foat">
                    <g id="diary_btn" transform="translate(44.000000, 44.000000)">
                        <g id="Group-8" transform="translate(10.888889, 0.000000)">
                            <polygon id="Fill-2" points="62.7967667 11.5518861 75.4932111 24.2483306 38.0463222 61.6938583 25.3512389 61.6938583 25.3512389 48.9974139"></polygon>
                            <g id="Group-7">
                                <path d="M67.5474528,37.9686028 L67.5474528,74.3524639 C67.5474528,76.6051028 65.7153972,78.4357972 63.4641194,78.4357972 L12.7572861,78.4357972 C10.5060083,78.4357972 8.67395278,76.6051028 8.67395278,74.3524639 L8.67395278,23.6469917 C8.67395278,21.3957139 10.5060083,19.5636583 12.7572861,19.5636583 L49.0104806,19.5636583 L57.1771472,11.3969917 L12.7572861,11.3969917 C6.00209167,11.3969917 0.507286111,16.8931583 0.507286111,23.6469917 L0.507286111,74.3524639 C0.507286111,81.1076583 6.00209167,86.6024639 12.7572861,86.6024639 L63.4641194,86.6024639 C70.2193139,86.6024639 75.7141194,81.1076583 75.7141194,74.3524639 L75.7141194,29.8019361 L67.5474528,37.9686028 Z" id="Fill-3"></path>
                                <path d="M85.8678722,14.2768306 C87.2289833,12.9143583 87.2289833,10.7134417 85.8678722,9.35096944 L77.6930389,1.17749722 C76.33465,-0.184975 74.1310111,-0.184975 72.7685389,1.17749722 L66.3767611,7.57063611 L79.4760944,20.6686083 L85.8678722,14.2768306 Z" id="Fill-5"></path>
                            </g>
                        </g>
                    </g>
                </g>
            </g>
        </g>
    </g>
</svg>