<?xml version="1.0" encoding="UTF-8"?>
<svg width="72px" height="51px" viewBox="0 0 72 51" version="1.1" xmlns="http://www.w3.org/2000/svg" xmlns:xlink="http://www.w3.org/1999/xlink">
    <!-- Generator: Sketch 57 (83077) - https://sketch.com -->
    <title>profile_icon_indentity</title>
    <desc>Created with Sketch.</desc>
    <g id="Page-1" stroke="none" stroke-width="1" fill="none" fill-rule="evenodd">
        <g id="マイページ-編集" transform="translate(-48.000000, -2241.000000)" fill="#8A9185">
            <g id="基本情報" transform="translate(0.000000, 2233.000000)">
                <g id="title" transform="translate(48.000000, 0.000000)">
                    <g id="icon/title/identity" transform="translate(0.000000, 8.000000)">
                        <path d="M64,5 C65.6568542,5 67,6.34314575 67,8 L67,43 C67,44.6568542 65.6568542,46 64,46 L8,46 C6.34314575,46 5,44.6568542 5,43 L5,8 C5,6.34314575 6.34314575,5 8,5 L64,5 Z M63,9 L9,9 L9,42 L12.5,42 L12.5,40.6703297 C12.5,34.4774907 15.4661012,30.7365196 21.526174,29.7581597 C18.5635048,28.4316435 16.5,25.4568005 16.5,22 C16.5,17.3055796 20.3055796,13.5 25,13.5 C29.6944204,13.5 33.5,17.3055796 33.5,22 C33.5,25.4975372 31.3875739,28.5016908 28.3689752,29.8062072 C34.3833173,30.9744165 37.5,35.4224343 37.5,41.8791209 L37.5,41.8791209 L37.5,42 L63,42 L63,9 Z M25,32.5 C18.2207209,32.5 15.5,35.0840442 15.5,40.6703297 L15.5,40.6703297 L15.5,42 L34.5,42 L34.5,41.8791209 C34.5,35.9967568 31.5800036,32.6177897 25.3319216,32.5030223 Z M54,25 C54.8284271,25 55.5,25.6715729 55.5,26.5 C55.5,27.2796961 54.9051119,27.9204487 54.14446,27.9931334 L54,28 L39,28 C38.1715729,28 37.5,27.3284271 37.5,26.5 C37.5,25.7203039 38.0948881,25.0795513 38.85554,25.0068666 L39,25 L54,25 Z M25,16.5 C21.9624339,16.5 19.5,18.9624339 19.5,22 C19.5,25.0375661 21.9624339,27.5 25,27.5 C28.0375661,27.5 30.5,25.0375661 30.5,22 C30.5,18.9624339 28.0375661,16.5 25,16.5 Z M54,16 C54.8284271,16 55.5,16.6715729 55.5,17.5 C55.5,18.2796961 54.9051119,18.9204487 54.14446,18.9931334 L54,19 L39,19 C38.1715729,19 37.5,18.3284271 37.5,17.5 C37.5,16.7203039 38.0948881,16.0795513 38.85554,16.0068666 L39,16 L54,16 Z" id="Combined-Shape"></path>
                    </g>
                </g>
            </g>
        </g>
    </g>
</svg>