<?xml version="1.0" encoding="UTF-8"?>
<svg width="72px" height="51px" viewBox="0 0 72 51" version="1.1" xmlns="http://www.w3.org/2000/svg" xmlns:xlink="http://www.w3.org/1999/xlink">
    <!-- Generator: Sketch 57 (83077) - https://sketch.com -->
    <title>profile_icon_profile_details</title>
    <desc>Created with Sketch.</desc>
    <g id="Page-1" stroke="none" stroke-width="1" fill="none" fill-rule="evenodd">
        <g id="マイページ-編集" transform="translate(-48.000000, -3135.000000)" fill="#8A9185">
            <g id="profile" transform="translate(0.000000, 3127.000000)">
                <g id="title" transform="translate(48.000000, 0.000000)">
                    <g id="icon/title/profile-icon" transform="translate(0.000000, 8.000000)">
                        <path d="M57,8 C59.209139,8 61,9.790861 61,12 L61,39 C61,41.209139 59.209139,43 57,43 L15,43 C12.790861,43 11,41.209139 11,39 L11,12 C11,9.790861 12.790861,8 15,8 L57,8 Z M57,12 L15,12 L15,39 L57,39 L57,12 Z M50,28.625 C50.8284271,28.625 51.5,29.2965729 51.5,30.125 C51.5,30.9534271 50.8284271,31.625 50,31.625 L50,31.625 L22,31.625 C21.1715729,31.625 20.5,30.9534271 20.5,30.125 C20.5,29.2965729 21.1715729,28.625 22,28.625 L22,28.625 Z M22,19.125 L50,19.125 C50.8284271,19.125 51.5,19.7965729 51.5,20.625 C51.5,21.4046961 50.9051119,22.0454487 50.14446,22.1181334 L50,22.125 L22,22.125 C21.1715729,22.125 20.5,21.4534271 20.5,20.625 C20.5,19.8453039 21.0948881,19.2045513 21.85554,19.1318666 L22,19.125 L50,19.125 Z" id="Combined-Shape"></path>
                    </g>
                </g>
            </g>
        </g>
    </g>
</svg>