<?xml version="1.0" encoding="UTF-8"?>
<svg width="84px" height="85px" viewBox="0 0 84 85" version="1.1" xmlns="http://www.w3.org/2000/svg" xmlns:xlink="http://www.w3.org/1999/xlink">
    <!-- Generator: Sketch 57 (83077) - https://sketch.com -->
    <title>list_icon_point</title>
    <desc>Created with Sketch.</desc>
    <g id="Page-1" stroke="none" stroke-width="1" fill="none" fill-rule="evenodd">
        <g id="マイページ" transform="translate(-30.000000, -1866.000000)" fill="#6D6D6D">
            <g id="おしるこステータス" transform="translate(0.000000, 1615.000000)">
                <g id="list/normal-copy-4" transform="translate(0.000000, 222.000000)">
                    <g id="icon/list/list_icon_point_gray" transform="translate(30.000000, 30.000000)">
                        <path d="M42,77 C61.3299662,77 77,61.3299662 77,42 C77,22.6700338 61.3299662,7 42,7 C22.6700338,7 7,22.6700338 7,42 C7,61.3299662 22.6700338,77 42,77 Z M42,73 C24.8791728,73 11,59.1208272 11,42 C11,24.8791728 24.8791728,11 42,11 C59.1208272,11 73,24.8791728 73,42 C73,59.1208272 59.1208272,73 42,73 Z" id="Oval"></path>
                        <path d="M44.9501953,46.2900391 L39.3720703,46.2900391 L39.3720703,54.8007812 C39.3720703,56.0175842 39.0849638,56.9404265 38.5107422,57.5693359 C37.9365206,58.1982453 37.2119184,58.5126953 36.3369141,58.5126953 C35.4208939,58.5126953 34.68262,58.2016633 34.1220703,57.5795898 C33.5615206,56.9575164 33.28125,56.0449279 33.28125,54.8417969 L33.28125,31.6679688 C33.28125,30.3281183 33.5888641,29.3710966 34.2041016,28.796875 C34.819339,28.2226534 35.7968683,27.9355469 37.1367188,27.9355469 L44.9501953,27.9355469 C47.2607537,27.9355469 49.0380797,28.1132795 50.2822266,28.46875 C51.5127015,28.8105486 52.5756791,29.3779257 53.4711914,30.1708984 C54.3667037,30.9638712 55.0468727,31.9345646 55.5117188,33.0830078 C55.9765648,34.2314511 56.2089844,35.5234303 56.2089844,36.9589844 C56.2089844,40.0214997 55.2656344,42.3422773 53.3789062,43.9213867 C51.4921781,45.5004962 48.6826358,46.2900391 44.9501953,46.2900391 Z M43.4736328,32.5087891 L39.3720703,32.5087891 L39.3720703,41.6962891 L43.4736328,41.6962891 C44.9091869,41.6962891 46.1088819,41.5458999 47.0727539,41.2451172 C48.0366259,40.9443344 48.7714818,40.4521519 49.2773438,39.7685547 C49.7832057,39.0849575 50.0361328,38.1894587 50.0361328,37.0820312 C50.0361328,35.7558527 49.6464883,34.6757854 48.8671875,33.8417969 C47.9921831,32.9531206 46.1943495,32.5087891 43.4736328,32.5087891 Z" id="P"></path>
                    </g>
                </g>
            </g>
        </g>
    </g>
</svg>