<?xml version="1.0" encoding="UTF-8"?>
<svg width="72px" height="51px" viewBox="0 0 72 51" version="1.1" xmlns="http://www.w3.org/2000/svg" xmlns:xlink="http://www.w3.org/1999/xlink">
    <!-- Generator: Sketch 57 (83077) - https://sketch.com -->
    <title>profile_icon_nickname</title>
    <desc>Created with Sketch.</desc>
    <g id="Page-1" stroke="none" stroke-width="1" fill="none" fill-rule="evenodd">
        <g id="マイページ-編集" transform="translate(-48.000000, -1313.000000)" fill="#8A9185">
            <g id="つぶやき" transform="translate(0.000000, 1305.000000)">
                <g id="title" transform="translate(48.000000, 0.000000)">
                    <g id="inttoduce-icon" transform="translate(0.000000, 8.000000)">
                        <path d="M36,1 C49.8071187,1 61,12.1928813 61,26 C61,39.8071187 49.8071187,51 36,51 C22.1928813,51 11,39.8071187 11,26 C11,12.1928813 22.1928813,1 36,1 Z M36.0003029,31.2380952 C29.2632117,31.2380952 23.70798,36.3855278 23.3834075,42.7885345 C26.8957095,45.4327911 31.2648341,47 36,47 C40.7351659,47 45.1042905,45.4327911 48.6169671,42.7887802 C48.2920253,36.3856029 42.7368868,31.2380952 36.0003029,31.2380952 Z M36,5 C24.4020203,5 15,14.4020203 15,26 C15,31.3977102 17.0364587,36.3197799 20.38297,40.039803 C21.9796058,33.1700735 28.3892056,28 36.0003029,28 C43.6109672,28 50.02043,33.1701489 51.6175747,40.0393418 C54.9635413,36.3197799 57,31.3977102 57,26 C57,14.4020203 47.5979797,5 36,5 Z M36.0003108,7 C41.5230016,7 46,11.4772929 46,17 C46,22.5227071 41.5230016,27 36.0003108,27 C30.4771138,27 26,22.5228225 26,17 C26,11.4771775 30.4771138,7 36.0003108,7 Z M36.0003108,10.3333333 C32.3180736,10.3333333 29.3333333,13.3181161 29.3333333,17 C29.3333333,20.6818839 32.3180736,23.6666667 36.0003108,23.6666667 C39.6820033,23.6666667 42.6666667,20.681807 42.6666667,17 C42.6666667,13.318193 39.6820033,10.3333333 36.0003108,10.3333333 Z" id="Combined-Shape"></path>
                    </g>
                </g>
            </g>
        </g>
    </g>
</svg>