<?xml version="1.0" encoding="UTF-8"?>
<svg width="90px" height="90px" viewBox="0 0 90 90" version="1.1" xmlns="http://www.w3.org/2000/svg" xmlns:xlink="http://www.w3.org/1999/xlink">
    <!-- Generator: Sketch 56.2 (81672) - https://sketch.com -->
    <title>group_icon_admin</title>
    <desc>Created with Sketch.</desc>
    <g id="Symbols" stroke="none" stroke-width="1" fill="none" fill-rule="evenodd">
        <g id="group/group_icon_admin">
            <g id="Group-10" transform="translate(6.000000, 6.000000)">
                <path d="M39,78 C17.495,78 0,60.505 0,39 C0,17.495 17.495,0 39,0 C60.505,0 78,17.495 78,39 C78,60.505 60.505,78 39,78" id="Fill-1" fill="#FBD921"></path>
                <path d="M38.6689118,78 C49.9612999,78 60.0876615,73.0060647 67,65.1028227 C65.1215054,62.3170774 62.2939846,60.7669449 59.633172,59.7597332 C58.2901928,59.2505109 56.9742221,58.8760827 55.8165777,58.5578188 C54.6598646,58.241427 53.6540272,57.974647 52.9797436,57.7190998 C51.7988159,57.2772746 50.5489697,56.7062717 49.6781753,56.0903374 C49.2423124,55.7870506 48.9070332,55.4725309 48.7142477,55.2029427 C48.5168055,54.9305462 48.4627883,54.7405239 48.4609257,54.5767116 L48.4609257,50.1266332 C49.9724758,48.4351541 52.1443397,45.8150931 53.0374861,41.6608129 C53.3504133,41.5185302 53.6586838,41.3593983 53.9548471,41.1525267 C54.6952552,40.6395602 55.3229723,39.8935121 55.8528996,38.880684 C56.3902776,37.8641116 56.8633937,36.5620377 57.3691064,34.7844401 C57.6242911,33.8811322 57.7435015,33.0976414 57.7435015,32.401205 C57.7453641,31.5971206 57.5786559,30.897876 57.2759733,30.3315535 C57.0030933,29.8148426 56.6259043,29.4488391 56.2421959,29.1820591 C57.0440719,26.8606046 57.4678275,24.6655197 57.4678275,22.6267584 C57.4780721,18.9040066 56.095977,15.6745639 53.57207,13.2950731 C51.0975237,10.9539612 47.5966505,9.41038115 43.3004208,8.65497238 C41.5681452,7.53449617 39.398144,7.00280821 37.0893745,7 C34.6548754,7.00187214 32.0555306,7.58972432 29.6238254,8.79163865 C27.1949143,9.99542512 24.9308487,11.8207623 23.2246503,14.2976045 C21.2185634,17.1956783 20.3244857,19.8522459 20.3319363,22.5593614 C20.3356617,24.817163 20.9242628,27.0440744 21.8108899,29.5349576 C21.7559414,29.5752086 21.7009929,29.5995465 21.6460443,29.64635 C21.3387051,29.912194 21.0760698,30.2819418 20.9121555,30.7153423 C20.7454473,31.150615 20.6662842,31.6411159 20.6662842,32.1943335 C20.6672155,32.9207241 20.7994645,33.7594431 21.0900397,34.7844401 C21.7671174,37.1536342 22.3771392,38.6841092 23.1678391,39.8064576 C23.5645861,40.3634194 24.0134877,40.8108611 24.5033678,41.1525267 C24.8004623,41.3593983 25.1087329,41.5185302 25.4207288,41.6608129 C26.3129438,45.8150931 28.4848077,48.4351541 29.9972892,50.1266332 L29.9972892,54.5767116 C29.9972892,54.7161861 29.9414093,54.9193134 29.7244092,55.2085591 C29.4068253,55.6391515 28.747443,56.1586705 27.965125,56.6014318 C27.1837383,57.0479373 26.2868666,57.4345344 25.5008232,57.7116112 C24.5778742,58.0401719 23.0924013,58.3837097 21.4271816,58.8629778 C18.9246952,59.5903044 15.9677194,60.6368311 13.5611602,62.711163 C12.5739493,63.562987 11.6975669,64.6057694 11,65.8451265 C17.8890552,73.3177761 27.7332236,78 38.6689118,78" id="Fill-6" fill="#FFFFFD"></path>
                <path d="M30.0224351,58.0504687 C30.6073109,57.6395338 31.1437576,57.1780511 31.5693758,56.617345 C31.9894061,56.0622553 32.312578,55.3695632 32.312578,54.5767116 L32.312578,49.6810637 L32.312578,49.2336221 L32.0154834,48.9022532 C30.435946,47.1330802 28.2966788,44.7872879 27.5553394,40.6142863 L27.4379917,39.9468681 L26.8046866,39.719403 C26.4014203,39.5752482 26.0940811,39.426413 25.8258577,39.240135 C25.4291107,38.9583778 25.0705483,38.5755251 24.6505181,37.7882899 C24.2370071,37.0076072 23.7974189,35.8403275 23.3168521,34.1460402 C23.0672554,33.2698783 22.981573,32.626798 22.9824968,32.1943335 C22.9824968,31.8639006 23.0318648,31.6626455 23.0737747,31.5540614 C23.1436245,31.3949294 23.1566632,31.4155229 23.1892598,31.3911851 L23.3913586,31.3518702 L26.9853648,39.0912998 L26.9853648,31.9565716 L26.9835021,31.9303616 L26.9835021,31.9238091 C26.9816395,31.8975992 26.9779142,31.8124168 26.9779142,31.6776226 C26.9769828,31.0804098 27.0552146,29.5021952 27.7341549,27.6693694 C28.4149578,25.8356076 29.678774,23.7509789 32.0899899,22.0501391 C33.5139949,21.0438635 35.2397512,20.735851 37.0828552,20.735851 C39.4372599,20.7302799 41.8931797,21.2488629 43.9504898,21.2554154 C44.5837948,21.2544793 45.186366,21.2048676 45.7535465,21.051352 C45.9239801,21.0045485 46.0906884,20.9437039 46.2555339,20.8753708 C46.4138602,21.2554154 46.615959,21.6036335 46.8376158,21.9303221 C47.4820968,22.8729449 48.2709342,23.7126 49.0383509,25.0661578 C49.8039049,26.4140991 50.5564204,28.2778151 51.0397811,31.2189482 L51.9506228,39.1558887 L54.8470621,31.0410948 C54.8619634,31.0495194 54.8796587,31.0541998 54.89456,31.0635605 C55.0258777,31.1487429 55.1348434,31.2479664 55.2335645,31.4314361 C55.3304229,31.6139699 55.4254187,31.9041517 55.4272813,32.401205 C55.4272813,32.8289892 55.3509122,33.4037364 55.1413627,34.1460402 C54.5015384,36.4075861 53.9297011,37.722765 53.4034991,38.4519638 C53.1399325,38.8207755 52.8987178,39.0519849 52.6314258,39.240135 C52.3641338,39.426413 52.0558632,39.5752482 51.6525969,39.719403 L51.0192919,39.9468681 L50.9019442,40.6142863 C50.161536,44.7863518 48.0222688,47.1330802 46.4427315,48.9022532 L46.1447055,49.2336221 L46.1447055,49.6810637 L46.1447055,54.5767116 C46.1428429,55.3442893 46.4408688,56.0341732 46.8478604,56.5845825 C47.4634702,57.415813 48.3193634,58.0308112 49.2506943,58.5671795 C49.4444112,58.6766998 49.649304,58.7665625 49.8495402,58.8695303 C49.8495402,58.8695303 47.2595087,61.7198645 39.5853415,61.7198645 C31.9111743,61.7198645 28.5416189,58.9228863 28.5416189,58.9228863 C29.0519882,58.6607866 29.5558383,58.3762212 30.0224351,58.0504687 M25.1292222,15.6240161 C26.5914118,13.5010086 28.5369622,11.9284104 30.6473582,10.8828198 C32.7558915,9.83629316 35.0283391,9.32800696 37.0884432,9.32893141 C39.1317833,9.32613482 40.9506727,9.83254888 42.2098322,10.7133911 L42.423107,10.8622263 L42.6782917,10.9052855 C46.7714913,11.5895529 49.9091453,13.0179963 51.9822881,14.9893604 C54.0535682,16.966341 55.1395001,19.4619046 55.1516074,22.6267584 C55.1516074,24.7254282 54.64962,27.118024 53.5590314,29.7783359 L53.611186,29.7998655 L52.7450481,32.228032 L52.6053485,31.0120766 L52.6034858,30.9924191 L52.6016232,30.9755699 C51.9301335,26.839075 50.6756307,24.5166845 49.5589649,22.9412781 C49.0010976,22.155915 48.4953849,21.5605743 48.1424105,21.0363749 C47.7885047,20.5084312 47.5845432,20.0825192 47.5146934,19.5358541 L47.3144573,17.9304935 L46.1735768,19.0734354 C45.9761346,19.2700102 45.715362,19.4169732 45.3400356,19.5180688 C44.9702972,19.6201005 44.4971811,19.6687761 43.9504898,19.666904 C42.1539523,19.6743925 39.6449467,19.1520653 37.0828552,19.1464489 C35.0786309,19.1464489 32.9877929,19.4787538 31.1828735,20.7499374 C28.4782883,22.6548405 27.0170301,25.0455642 26.2533387,27.1170879 C25.4868533,29.1895477 25.3993082,30.9484238 25.3993082,31.6776226 C25.3993082,31.7852707 25.4011708,31.8676449 25.4030335,31.9303616 L24.4540072,29.885984 L24.4158226,29.9047054 C23.3140581,27.0000791 22.6434998,24.6795607 22.6490531,22.5602974 C22.6556071,20.3652125 23.3094015,18.2777756 25.1292222,15.6240161 M38.6689118,78 C49.9612999,78 60.0867302,73.0060647 67,65.1028227 C65.1215054,62.3180134 62.2930533,60.7669449 59.633172,59.7606692 C58.2901928,59.2505109 56.9732908,58.8770188 55.8156464,58.5578188 C54.6598646,58.2423631 53.6540272,57.9755831 52.9797436,57.7200359 C51.7988159,57.2772746 50.5489697,56.7072077 49.6781753,56.0912735 C49.2423124,55.7870506 48.9070332,55.4725309 48.7133164,55.2038788 C48.5158742,54.9314823 48.4627883,54.74146 48.4599943,54.5767116 L48.4599943,50.1266332 C49.9724758,48.4360901 52.1443397,45.8160292 53.0365547,41.6608129 C53.3494819,41.5194663 53.6577525,41.3603343 53.9548471,41.1525267 C54.6952552,40.6395602 55.3229723,39.8935121 55.8528996,38.8816201 C56.3902776,37.8650477 56.8624624,36.5629738 57.3691064,34.7853762 C57.6242911,33.8820683 57.7435015,33.0985774 57.7435015,32.4021411 C57.7453641,31.5971206 57.5786559,30.8988121 57.2759733,30.3324896 C57.0030933,29.8157787 56.6259043,29.4497752 56.2412646,29.1829952 C57.0440719,26.8615407 57.4678275,24.6664557 57.4678275,22.6276945 C57.4771408,18.9040066 56.095977,15.6745639 53.57207,13.2950731 C51.0975237,10.9539612 47.5966505,9.41131722 43.2994894,8.65497238 C41.5681452,7.53449617 39.398144,7.00374428 37.0884432,7 C34.6548754,7.00280821 32.0555306,7.59066039 29.6228941,8.79257472 C27.1939829,9.99636119 24.9308487,11.8207623 23.2246503,14.2976045 C21.2176321,17.1956783 20.3244857,19.853182 20.3319363,22.5602974 C20.3356617,24.8180991 20.9233315,27.0450105 21.8108899,29.5349576 C21.7559414,29.5752086 21.7000615,29.6004825 21.6460443,29.6472861 C21.3387051,29.912194 21.0760698,30.2828778 20.9112242,30.7162784 C20.7454473,31.1515511 20.6662842,31.6411159 20.6662842,32.1952695 C20.6672155,32.9207241 20.7994645,33.7603792 21.0900397,34.7853762 C21.766186,37.1545703 22.3771392,38.6850453 23.1678391,39.8064576 C23.5636548,40.3634194 24.0134877,40.8117971 24.5033678,41.1525267 C24.8004623,41.3603343 25.1087329,41.5194663 25.4207288,41.6608129 C26.3129438,45.8160292 28.4848077,48.4360901 29.9972892,50.1266332 L29.9972892,54.5767116 C29.9972892,54.7161861 29.9414093,54.9202494 29.7244092,55.2094952 C29.405894,55.6391515 28.747443,56.1586705 27.965125,56.6014318 C27.1837383,57.0488734 26.2859352,57.4345344 25.5008232,57.7125473 C24.5778742,58.041108 23.0924013,58.3837097 21.4271816,58.8639138 C18.9246952,59.5903044 15.9667881,60.6377671 13.5602288,62.711163 C12.5739493,63.5639231 11.6966356,64.6067054 11,65.8451265 C17.8890552,73.3187122 27.7332236,78 38.6689118,78 M31.7202515,34.4277973 C31.7239768,33.0199475 32.8574066,31.8788778 34.2581284,31.8760696 C35.6607128,31.8788778 36.7941426,33.0199475 36.7978679,34.4277973 C36.7941426,35.8375193 35.6607128,36.977653 34.2581284,36.9795251 C32.8574066,36.977653 31.7239768,35.8375193 31.7202515,34.4277973 M44.6098721,31.8760696 C46.0105939,31.8788778 47.1440237,33.0199475 47.1458863,34.4277973 C47.1440237,35.8375193 46.0105939,36.977653 44.6098721,36.9795251 C43.2072877,36.977653 42.0719952,35.8375193 42.0701325,34.4277973 C42.0719952,33.0199475 43.2072877,31.8788778 44.6098721,31.8760696 M38.2377056,34.5476143 C38.5636714,34.4072038 38.9920837,34.2780261 39.4614745,34.2827064 C39.8284189,34.2827064 40.2205092,34.3594642 40.6321575,34.5616554 C40.706664,36.711809 42.4501156,38.4369866 44.6098721,38.4379227 C46.8134012,38.4369866 48.5959687,36.6416037 48.5987627,34.4277973 C48.5959687,32.2130549 46.8134012,30.418608 44.6098721,30.418608 C42.7053003,30.418608 41.1220376,31.7599968 40.7224966,33.5488273 C40.2866337,33.385015 39.8572902,33.3101293 39.4614745,33.3101293 C38.9576244,33.3129375 38.5124482,33.4140331 38.1427098,33.5404026 C37.7403749,31.7543804 36.1599062,30.418608 34.2581284,30.418608 C32.0545993,30.418608 30.2711005,32.2130549 30.2701691,34.4277973 C30.2711005,36.6416037 32.0545993,38.4369866 34.2581284,38.4379227 C36.4234729,38.4369866 38.1725124,36.7043204 38.2377056,34.5476143" id="Fill-8" fill="#4A4A4A"></path>
            </g>
        </g>
    </g>
</svg>