<?xml version="1.0" encoding="UTF-8"?>
<svg width="72px" height="51px" viewBox="0 0 72 51" version="1.1" xmlns="http://www.w3.org/2000/svg" xmlns:xlink="http://www.w3.org/1999/xlink">
    <!-- Generator: Sketch 57 (83077) - https://sketch.com -->
    <title>profile_icon_introduce</title>
    <desc>Created with Sketch.</desc>
    <g id="Page-1" stroke="none" stroke-width="1" fill="none" fill-rule="evenodd">
        <g id="マイページ-編集" transform="translate(-48.000000, -1617.000000)" fill="#8A9185">
            <g id="つぶやき" transform="translate(0.000000, 1609.000000)">
                <g id="title" transform="translate(48.000000, 0.000000)">
                    <g id="icon/title/tweet" transform="translate(0.000000, 8.000000)">
                        <path d="M6.35706614,42.8594877 C5.27108656,44.4238659 6.77914124,46.4771223 8.59676247,45.9088935 L21.5455626,41.8608113 C24.6304318,44.055793 28.2631289,45.2605054 32.057797,45.2605054 L47.783903,45.2605054 C58.1360038,45.2605054 66.5584161,36.4332342 66.5584161,25.6796543 L66.5584161,24.5808511 C66.5584161,13.8272713 58.1360038,5 47.783903,5 L32.057797,5 C21.7056963,5 13.2832839,13.8272713 13.2832839,24.5808511 L13.2832839,25.6796543 C13.2832839,27.6922447 13.5905432,29.6750758 14.1809877,31.5889512 L6.35706614,42.8594877 Z M12.967327,40.3516486 L18.0396261,33.0448867 C18.4104335,32.5107302 18.4984147,31.829649 18.2755178,31.2187985 C17.6232622,29.4312874 17.2832839,27.5697634 17.2832839,25.6796543 L17.2832839,24.5808511 C17.2832839,15.9954947 23.9579333,9 32.057797,9 L47.783903,9 C55.8837667,9 62.5584161,15.9954947 62.5584161,24.5808511 L62.5584161,25.6796543 C62.5584161,34.2650107 55.8837667,41.2605054 47.783903,41.2605054 L32.057797,41.2605054 C28.8282275,41.2605054 25.7428855,40.1351299 23.1785031,38.0836867 C22.6591302,37.6682011 21.9671897,37.5380919 21.3323738,37.7365494 L12.967327,40.3516486 Z" id="Stroke-15"></path>
                    </g>
                </g>
            </g>
        </g>
    </g>
</svg>