<?xml version="1.0" encoding="UTF-8"?>
<svg width="120px" height="120px" viewBox="0 0 120 120" version="1.1" xmlns="http://www.w3.org/2000/svg" xmlns:xlink="http://www.w3.org/1999/xlink">
    <!-- Generator: Sketch 56.2 (81672) - https://sketch.com -->
    <title>app_bar/icon_circle_mypage</title>
    <desc>Created with Sketch.</desc>
    <g id="Page-1" stroke="none" stroke-width="1" fill="none" fill-rule="evenodd">
        <g id="Communicate" transform="translate(-942.000000, -150.000000)">
            <g id="greeting_communicate" transform="translate(0.000000, 132.000000)">
                <g id="mypage" transform="translate(942.000000, 18.000000)">
                    <circle id="Oval" fill="#000000" opacity="0.4" cx="60" cy="60" r="60"></circle>
                    <g id="Group-5" transform="translate(32.000000, 25.000000)" fill="#FFFFFF">
                        <path d="M3.5,70.5090909 C3.5,56.7480077 14.5475615,45.5 28.0005924,45.5 C41.452599,45.5 52.5,56.7481725 52.5,70.5090909 C52.5,72.4420875 54.0670034,74.0090909 56,74.0090909 C57.9329966,74.0090909 59.5,72.4420875 59.5,70.5090909 C59.5,52.9101174 45.3470925,38.5 28.0005924,38.5 C10.6531146,38.5 -3.5,52.9099078 -3.5,70.5090909 C-3.5,72.4420875 -1.93299662,74.0090909 0,74.0090909 C1.93299662,74.0090909 3.5,72.4420875 3.5,70.5090909 Z" id="Stroke-1"></path>
                        <path d="M47.0636364,15.7818182 C47.0636364,26.4306014 38.4311691,35.0636364 27.7824069,35.0636364 C17.1326897,35.0636364 8.5,26.4308239 8.5,15.7818182 C8.5,5.13281251 17.1326897,-3.5 27.7824069,-3.5 C38.4311691,-3.5 47.0636364,5.13303493 47.0636364,15.7818182 Z M40.0636364,15.7818182 C40.0636364,8.99892514 34.5650728,3.5 27.7824069,3.5 C20.9987052,3.5 15.5,8.99878346 15.5,15.7818182 C15.5,22.5648529 20.9987052,28.0636364 27.7824069,28.0636364 C34.5650728,28.0636364 40.0636364,22.5647112 40.0636364,15.7818182 Z" id="Stroke-3"></path>
                    </g>
                </g>
            </g>
        </g>
    </g>
</svg>