<?xml version="1.0" encoding="UTF-8"?>
<svg width="96px" height="126px" viewBox="0 0 96 126" version="1.1" xmlns="http://www.w3.org/2000/svg" xmlns:xlink="http://www.w3.org/1999/xlink">
    <!-- Generator: Sketch 57 (83077) - https://sketch.com -->
    <title>icon/concierge</title>
    <desc>Created with Sketch.</desc>
    <g id="Page-1" stroke="none" stroke-width="1" fill="none" fill-rule="evenodd">
        <g id="日記-top-下タブあり" transform="translate(-891.000000, -1881.000000)">
            <g id="bt/floadting/concierge" transform="translate(846.000000, 1851.000000)">
                <g id="icon/concierge" transform="translate(45.000000, 30.000000)">
                    <path d="M91.0890808,113.601695 C90.8176949,113.878553 90.2688109,114.295685 89.4974393,114.737427 C86.7762458,116.318592 81.4072062,118.259057 74.200811,119.735632 C66.9821911,121.222051 57.8846519,122.285186 47.5145329,122.285186 C34.2581885,122.286415 23.0775793,120.544057 15.2550647,118.410406 C11.3468636,117.348503 8.27237945,116.180779 6.25654471,115.132411 C5.25168348,114.614379 4.51087338,114.117266 4.10134965,113.755505 C3.92653802,113.600464 3.82874131,113.482338 3.77984295,113.414662 C3.72238738,112.684988 3.68938099,111.978693 3.68938099,111.309313 C3.69549329,107.142911 4.71013418,104.109781 6.27732651,101.732496 C8.61955778,98.1788727 12.3835088,96.0107689 16.3149366,94.5243504 C18.2745383,93.7823717 20.2524768,93.2126599 22.0690507,92.7130855 C23.8342814,92.2270464 25.4320352,91.809914 26.7804074,91.3177225 L21.1448718,108.781909 L33.0944076,105.953038 L48.867795,119.256976 L64.6411823,105.953038 L76.5907181,108.781909 L71.2412379,92.2012063 C72.3659001,92.5026736 73.5798018,92.8164457 74.8474917,93.1855894 C78.6554512,94.2819461 82.858265,95.8495762 85.9902047,98.5713954 C87.5610644,99.9323051 88.8764302,101.567611 89.8201685,103.624972 C90.7602394,105.682333 91.3384624,108.178974 91.3396849,111.304391 C91.3396849,111.975002 91.305456,112.681297 91.2480005,113.412201 L91.0890808,113.601695 Z M80.0343849,90.9904151 C77.8914144,90.1758381 75.7924525,89.5815168 73.9416497,89.0807119 C72.0932918,88.5835984 70.4772011,88.173849 69.379433,87.7813262 C67.7107766,87.1943878 65.7242809,86.2875248 64.2878917,85.2760712 C63.5666409,84.7728054 62.9920852,84.2436994 62.6522416,83.7896527 L62.4248643,83.4389663 C62.1131373,83.5447874 61.8136348,83.6629134 61.4933506,83.7564298 C60.647409,84.008678 59.7513466,84.2141679 58.8247228,84.3950483 C59.0398756,84.997983 59.3491577,85.552929 59.7146729,86.0352767 C60.3723558,86.8978424 61.2011829,87.6127506 62.1021351,88.2525996 L48.867795,108.891422 L34.9549901,87.1943878 C34.4422008,87.1008867 34.3117443,86.8733578 34.5636207,86.5118012 C35.8559202,84.6567663 36.5014394,83.4134628 36.5001782,82.7818905 L36.5001782,74.9732716 L36.5001782,74.2595939 L36.0258641,73.7292575 C33.5112661,70.9089999 30.1030507,67.1658832 28.9233778,60.5102229 L28.7363416,59.4470892 L27.7265906,59.0840979 C27.0847996,58.8539984 26.5945936,58.6177464 26.1679554,58.3199705 C25.5371666,57.8708457 24.9650559,57.2592977 24.2963709,56.0042093 C23.636243,54.7589647 22.9369965,52.8972501 22.1729597,50.1951185 C21.8367835,49.0113979 21.7169825,48.0946911 21.7169825,47.4117753 C21.7194275,46.8137626 21.8037771,46.4027827 21.9137984,46.1123896 C24.9124901,49.8924207 28.3072585,50.545805 28.3072585,50.545805 C53.4654629,41.5423911 60.7342036,26.3472075 60.7342036,26.3472075 C60.7342036,26.3472075 61.6278211,46.9860296 68.9381254,51.8107373 L68.9381254,58.817084 C68.5188219,59.1271647 68.0493977,59.3474204 67.4723971,59.5627542 L66.7376993,59.8260767 L66.6020064,60.5975869 C65.4003293,67.3959827 61.8930946,71.251073 59.3772742,74.0676392 L59.0325408,74.4540095 L59.0325408,74.9732716 L59.0325408,76.7353174 C60.0178427,76.464612 60.9053478,76.1323827 61.7158381,75.7398599 C64.1497538,72.767023 67.6948846,68.5846253 69.0750408,61.8133001 L69.5212383,61.5942748 C69.5566896,61.260815 69.5835837,60.911359 69.6117002,60.5680554 C70.0615651,61.1328452 70.7119132,61.6041187 71.507734,61.9375784 C71.2669096,64.1093736 70.8989494,66.0510693 70.3965188,67.730673 C68.977244,72.4261803 66.7071378,75.2525903 63.5262998,77.0847734 C60.8246656,78.6327158 57.3382127,79.4251442 53.1133948,79.6306341 C52.5498412,78.9526403 51.7149018,78.5145898 50.7674961,78.5145898 L46.2969639,78.5145898 C44.5989684,78.5145898 43.2212572,79.8988785 43.2212572,81.6117051 C43.2212572,83.3183793 44.5989684,84.705129 46.2969639,84.705129 L50.7674961,84.705129 C51.9679508,84.705129 52.9972612,84.006217 53.5033591,82.9972243 C56.1780992,82.8557193 58.6584684,82.4865756 60.929797,81.8122732 C65.468787,80.4821255 69.1997316,77.805834 71.6079756,73.5040798 C73.2644074,70.5595439 74.3169446,66.9025607 74.8267099,62.4346919 C77.4867805,62.2341238 79.5600708,60.7021776 79.5600708,58.817084 L79.5600708,44.1866902 C79.5600708,42.564919 78.0209951,41.2064704 75.8988064,40.7265836 C81.8925224,21.6061724 66.5714449,4.63786874 50.130595,3.88112423 C47.7883637,1.56659347 44.4082648,-0.147463601 39.5868869,0.0100376947 C32.7741234,0.231523892 28.4050552,5.43644953 26.3659938,11.5949963 C19.9224129,17.2244371 16.5692081,25.4514189 17.6828681,34.789523 C18.0764999,38.0798236 18.8735431,40.6724425 19.8551776,42.744569 C19.4505437,43.1186345 19.0679141,43.5505326 18.7708566,44.111631 C18.2892078,45.0148025 18.0251566,46.1296163 18.0276016,47.4117753 C18.028824,48.5228977 18.2170827,49.7730643 18.625384,51.213955 C19.7023703,54.9927557 20.6754476,57.4327953 21.9358027,59.223142 C22.5641466,60.1115478 23.28173,60.8252255 24.0616587,61.3703277 C24.5347503,61.7013265 25.0261788,61.9548051 25.5224971,62.1812132 C26.1483961,65.0962177 27.1752616,67.5128782 28.3268179,69.5640865 C27.9124043,75.822302 24.9406067,81.9328601 17.2012193,80.3738434 C17.2012193,84.3027624 21.8979065,87.2066926 24.0115379,88.315354 C22.6668331,88.7115682 21.0018441,89.1422358 19.1767129,89.6738027 C15.2012766,90.8427576 10.4886975,92.5002127 6.65017647,95.7929741 C4.7333609,97.4381244 3.05003498,99.5090203 1.8654723,102.085643 C0.678464695,104.661035 0,107.722467 0,111.310543 C0,112.139886 0.0354513084,112.99753 0.111243761,113.887166 C0.165031953,114.51471 0.402188982,115.020437 0.678464695,115.437569 C1.20534449,116.218923 1.90581344,116.797249 2.78109402,117.3928 C4.31650241,118.415328 6.44235846,119.414477 9.16477445,120.395169 C17.3112406,123.320017 30.7986298,125.995078 47.5145329,126 C61.094829,126 72.5578262,124.224419 80.7385212,121.997252 C84.8325361,120.881208 88.1001688,119.656881 90.4619594,118.436246 C91.6440772,117.821007 92.6012625,117.21192 93.3604095,116.546231 C93.7393717,116.21031 94.0718806,115.857163 94.3530461,115.436339 C94.6268769,115.019207 94.8652564,114.51348 94.9190446,113.887166 C94.9936146,112.996299 95.0304998,112.136195 95.0304998,111.305621 C95.0351782,106.520289 93.8188316,102.660277 91.8335583,99.6517559 C88.8470912,95.1272851 84.3081012,92.6134167 80.0343849,90.9904151 Z" id="Fill-3" fill="#FFFFFF"></path>
                    <path d="M91.0890808,113.601695 C90.8176949,113.878553 90.2688109,114.295685 89.4974393,114.737427 C86.7762458,116.318592 81.4072062,118.259057 74.200811,119.735632 C66.9821911,121.222051 57.8846519,122.285191 47.5145329,122.285191 C34.2581885,122.286415 23.0775793,120.544057 15.2550647,118.410406 C11.3468636,117.348503 8.27237945,116.180779 6.25654471,115.132411 C5.25168348,114.614379 4.51087338,114.117266 4.10134965,113.755505 C3.92653802,113.600464 3.82874131,113.482338 3.77984295,113.414662 C3.72238738,112.684988 3.68938099,111.978693 3.68938099,111.309313 C3.69549329,107.142911 4.71013418,104.109781 6.27732651,101.732496 C8.61955778,98.1788727 12.3835088,96.0107689 16.3149366,94.5243504 C18.2745383,93.7823717 20.2524768,93.2126599 22.0690507,92.7130855 C23.8342814,92.2270464 25.4320352,91.809914 26.7804074,91.3177225 M71.2412379,92.2012063 C72.3659001,92.5026736 73.5798018,92.8164457 74.8474917,93.1855894 C78.6554512,94.2819461 82.858265,95.8495762 85.9902047,98.5713954 C87.5610644,99.9323051 88.8764302,101.567611 89.8201685,103.624972 C90.7602394,105.682333 91.3384624,108.178974 91.3396849,111.304391 C91.3396849,111.975002 91.305456,112.681297 91.2480005,113.412201" id="Shape" stroke="#FFFFFF" stroke-width="4"></path>
                </g>
            </g>
        </g>
    </g>
</svg>