<?xml version="1.0" encoding="UTF-8"?>
<svg width="120px" height="120px" viewBox="0 0 120 120" version="1.1" xmlns="http://www.w3.org/2000/svg" xmlns:xlink="http://www.w3.org/1999/xlink">
    <!-- Generator: Sketch 56.2 (81672) - https://sketch.com -->
    <title>app_bar/icon_information_circle</title>
    <desc>Created with Sketch.</desc>
    <g id="Page-1" stroke="none" stroke-width="1" fill="none" fill-rule="evenodd">
        <g id="Nakama" transform="translate(-18.000000, -150.000000)">
            <g id="greeting_nakama" transform="translate(0.000000, 132.000000)">
                <g id="filter-copy" transform="translate(18.000000, 18.000000)">
                    <circle id="Oval" fill="#000000" opacity="0.4" cx="60" cy="60" r="60"></circle>
                    <path d="M102,60 C102,83.196 83.1946667,102 60,102 C36.804,102 18,83.196 18,60 C18,36.804 36.804,18 60,18 C83.1946667,18 102,36.804 102,60 Z M94.7878788,60 C94.7878788,40.7876255 79.2120329,25.2121212 60,25.2121212 C40.7871455,25.2121212 25.2121212,40.7871455 25.2121212,60 C25.2121212,79.2128545 40.7871455,94.7878788 60,94.7878788 C79.2120329,94.7878788 94.7878788,79.2123745 94.7878788,60 Z M60.5,50 C58.0145,50 56,47.9855 56,45.5 C56,43.0145 58.0145,41 60.5,41 C62.984,41 65,43.0145 65,45.5 C65,47.9855 62.984,50 60.5,50 Z M57,57.3038166 C57,55.5943638 58.790861,54 61,54 C63.209139,54 65,55.5943638 65,57.3038166 L65,76.5092476 C65,78.2187004 63.209139,80 61,80 C58.790861,80 57,78.2187004 57,76.5092476 L57,57.3038166 Z" id="Combined-Shape" fill="#FFFFFF"></path>
                </g>
            </g>
        </g>
    </g>
</svg>