<?xml version="1.0" encoding="UTF-8"?>
<svg width="120px" height="96px" viewBox="0 0 120 96" version="1.1" xmlns="http://www.w3.org/2000/svg" xmlns:xlink="http://www.w3.org/1999/xlink">
    <!-- Generator: Sketch 57 (83077) - https://sketch.com -->
    <title>input_icon_photo</title>
    <desc>Created with Sketch.</desc>
    <g id="Page-1" stroke="none" stroke-width="1" fill="none" fill-rule="evenodd">
        <g id="メッセージ" transform="translate(-24.000000, -2103.000000)" fill="#81BF5C">
            <g id="input_chat" transform="translate(0.000000, 2055.000000)">
                <g id="edit_photo_icon" transform="translate(24.000000, 48.000000)">
                    <g id="Group-5" transform="translate(15.000000, 16.000000)">
                        <path d="M3.5,0.5001 L87.829,0.5001 C89.4266809,0.5001 90.7326609,1.74901996 90.8239073,3.32382721 L90.829,3.5001 L90.829,60.9151 C90.829,62.5127809 89.58008,63.8187609 88.0052728,63.9100073 L87.829,63.9151 L3.5,63.9151 C1.90231912,63.9151 0.596339121,62.66618 0.505092693,61.0913728 L0.5,60.9151 L0.5,3.5001 C0.5,1.90241912 1.74891996,0.596439121 3.32372721,0.505192693 L3.5,0.5001 L87.829,0.5001 Z M19.307207,22.7736545 L6.5,33.8131 L6.5,57.9151 L84.829,57.9151 L84.829,49.4181 L55.2343712,28.89213 L47.844,35.2621 L53.0435302,38.8684094 C54.4050174,39.8126121 54.7432933,41.6817431 53.7990906,43.0432302 C52.8898583,44.3542919 51.1229423,44.7165322 49.7775624,43.8984375 L49.6242698,43.7987906 L19.307207,22.7736545 Z M84.829,6.5001 L6.5,6.5001 L6.5,25.8921 L17.1490782,16.7123727 C18.1331624,15.864022 19.5439922,15.7499819 20.6461737,16.4089348 L20.8175302,16.5194094 L42.751,31.7311 L53.0762451,22.8308012 C54.0603572,21.9824015 55.4712542,21.8683698 56.5734581,22.5273852 L56.7448177,22.6378701 L84.829,42.1161 L84.829,6.5001 Z" id="Combined-Shape"></path>
                    </g>
                </g>
            </g>
        </g>
    </g>
</svg>