<?xml version="1.0" encoding="UTF-8"?>
<svg width="144px" height="90px" viewBox="0 0 144 90" version="1.1" xmlns="http://www.w3.org/2000/svg" xmlns:xlink="http://www.w3.org/1999/xlink">
    <!-- Generator: Sketch 57 (83077) - https://sketch.com -->
    <title>nakama/matching_color</title>
    <desc>Created with Sketch.</desc>
    <defs>
        <rect id="path-1" x="0" y="0" width="144" height="90"></rect>
    </defs>
    <g id="Page-1" stroke="none" stroke-width="1" fill="none" fill-rule="evenodd">
        <g id="Top-Nakama" transform="translate(-858.000000, -1437.000000)">
            <g id="nakama/user" transform="translate(27.000000, 726.000000)">
                <g id="nakama/matching_color" transform="translate(831.000000, 711.000000)">
                    <g id="Group-10-+-Group-11-Mask">
                        <mask id="mask-2" fill="white">
                            <use xlink:href="#path-1"></use>
                        </mask>
                        <g id="Mask"></g>
                        <g id="Group-10" mask="url(#mask-2)">
                            <g transform="translate(6.000000, 2.000000)">
                                <g id="Group-5" stroke-width="1" fill="none" transform="translate(93.000000, 0.000000)"></g>
                                <polygon id="Fill-3" fill="#81BF5C" points="115.158855 1 94 11.3571574 111.840072 48.6709428 111.170304 49 133 38.3148714"></polygon>
                                <polygon id="Fill-6" fill="#FA685C" points="26.3087471 3 0 33.3627107 17.6912529 49 44 18.6372893"></polygon>
                                <path d="M93.5036307,14 C91.4959304,14.8323105 88.6441197,16.0587604 86.8982004,17.0092053 C84.2451297,18.4547407 81.2992916,20.4071801 71.9510371,22.2522246 C67.8458829,23.0619822 63.8593316,24.7416385 60.4380136,26.8154342 C56.6234898,29.349954 53.7246655,32.7876649 52.1785546,35.4102485 C49.1995931,40.4621049 48.2571814,44.5151887 49.5949359,46.5320651 C50.6014573,48.050629 52.8121715,48.0849954 54.4875702,47.8487266 C58.5905874,47.2698681 60.3076573,44.7761583 62.1240972,42.1363915 C64.3957156,38.8361461 66.7464025,35.4285057 73.7343537,36.8117521 C73.9234771,36.8493403 74.0912307,36.959957 74.2002171,37.1189015 C75.376629,38.8275545 78.6633167,41.4888002 82.1444704,44.3057686 C86.8447757,48.1129181 91.9617938,52.2605094 94.5379329,56 C98.8236626,52.4409328 104.775175,48.2750844 109,46.1969929 L93.5036307,14 Z" id="Fill-1" fill="#FFECD1"></path>
                                <path d="M94.6010706,59.114763 C92.7044851,55.2402897 86.4036904,50.1047903 81.5476571,46.1487149 C77.9664132,43.2306196 74.8509784,40.6944228 73.4427933,38.8066915 C67.5905954,37.7393345 65.7198285,40.4724647 63.5575274,43.6331906 C61.7147305,46.3271517 59.6266577,49.3790746 54.8480799,50.056917 C51.0204843,50.6020198 49.2669765,49.2746238 48.4709054,48.0647349 C46.7690347,45.4828408 47.6780617,40.9098526 51.0301663,35.1900813 C52.567444,32.5668421 55.370905,29.1885103 59.0392864,26.5413345 C56.9662743,25.5860445 53.5399416,24.6111701 50.1362,24.3478669 C48.7473788,24.24124 45.3769861,21.9607301 45.3769861,21.9607301 L44.1108029,21 L21,47.7089492 C28.321702,52.2362402 38.5028051,69.0898178 45.0768458,74.843318 C51.6530381,80.5989943 55.7893801,84.8466617 60.1946651,85.8726735 C64.6010259,86.8997734 65.9457405,81.3573509 67.5809134,81.9622953 C74.4271244,84.4963162 75.0252534,77.9550825 76.4560298,75.5842662 C77.7749258,73.3995028 80.7784803,75.2197763 83.0978441,72.9077135 C87.6913891,68.3260211 85.2332508,67.2499599 88.0420907,67.4904144 C91.2285264,67.7635098 94.5978432,63.718216 94.9528479,61.5922062 C95.0808647,60.8262334 94.943166,59.9938908 94.6010706,59.114763" id="Fill-8" fill="#FFECD1"></path>
                            </g>
                        </g>
                        <g id="Group-11" mask="url(#mask-2)" stroke-width="3">
                            <g transform="translate(6.000000, 2.300000)">
                                <path d="M110,46 C105.215327,47.8087193 99.5326947,52.3869362 94,57" id="Stroke-1" stroke="#414141"></path>
                                <polygon id="Stroke-3" stroke="#4A4A4A" points="110.988957 48 133 37.314738 115.011043 0 93 10.6837542"></polygon>
                                <path d="M42,20 C42,20 46.5077501,23.8738851 50.3123532,24.1729932 C54.3832785,24.492429 58.5232504,25.9139183 60,27" id="Stroke-5" stroke="#414141"></path>
                                <polygon id="Stroke-7" stroke="#4A4A4A" points="18.4325563 49 0 32.6927286 26.5674437 2 45 18.3087931"></polygon>
                                <path d="M20,46.8313021 C27.4192982,51.4552712 37.7415368,68.7028459 44.4055861,74.589021 C51.0696354,80.4751962 55.2620989,84.8195333 59.7269968,85.8700843 C64.1918947,86.9190903 65.5555805,81.2522949 67.2113766,81.870266 C74.1493739,84.4611101 74.7562973,77.7715724 76.206254,75.3460357 C77.5426963,73.1136149 80.5863945,74.9737081 82.9368984,72.6099684 C87.5909869,67.9242022 85.0997252,66.8226686 87.9481787,67.0683122 C91.1750134,67.3479441 94.5895252,63.2106273 94.9512576,61.0353689 C96.0833741,54.200608 77.1537204,42.2907591 73.5878562,37.0302797 C61.5341453,34.6001082 64.2615169,47.0305978 54.2041451,48.4735604 C46.8877666,49.5241114 45.7117579,43.6873739 51.0893113,34.4255313 C54.2162533,29.0430027 62.8115602,23.0100594 71.9154114,21.1854996 C81.4536442,19.2744238 84.4595043,17.2521132 87.1656865,15.7535332 C90.1321949,14.1128198 91.5124937,13.0931749 94.4307493,12" id="Stroke-9" stroke="#4A4A4A"></path>
                            </g>
                        </g>
                    </g>
                </g>
            </g>
        </g>
    </g>
</svg>