<?xml version="1.0" encoding="UTF-8"?>
<svg width="90px" height="114px" viewBox="0 0 90 114" version="1.1" xmlns="http://www.w3.org/2000/svg" xmlns:xlink="http://www.w3.org/1999/xlink">
    <title>member_status_osatou</title>
    <defs>
        <path d="M0,40.57 L0,41.108 C0.146,63.074 17.999,80.84 40,80.84 L40,80.84 C62.091,80.84 79.999,62.93 79.999,40.839 L79.999,40.839 C79.999,18.748 62.091,0.84 40,0.84 L40,0.84 C17.999,0.84 0.146,18.604 0,40.57 M3.849,40.784 C3.849,20.902 19.967,4.784 39.849,4.784 L39.849,4.784 C59.732,4.784 75.849,20.902 75.849,40.784 L75.849,40.784 C75.849,60.667 59.732,76.784 39.849,76.784 L39.849,76.784 C19.967,76.784 3.849,60.667 3.849,40.784" id="path-1"></path>
        <linearGradient x1="50.000625%" y1="-0.438332375%" x2="50.000625%" y2="99.1700985%" id="linearGradient-3">
            <stop stop-color="#FFF0F0" offset="0%"></stop>
            <stop stop-color="#D88E8E" offset="100%"></stop>
        </linearGradient>
        <path d="M0.97,36.891 C0.97,56.773 17.088,72.891 36.97,72.891 L36.97,72.891 C56.853,72.891 72.97,56.773 72.97,36.891 L72.97,36.891 C72.97,17.01 56.853,0.891 36.97,0.891 L36.97,0.891 C17.088,0.891 0.97,17.01 0.97,36.891 L0.97,36.891 Z" id="path-4"></path>
        <path d="M0.97,36.891 C0.97,56.773 17.088,72.891 36.97,72.891 L36.97,72.891 C56.853,72.891 72.97,56.773 72.97,36.891 L72.97,36.891 C72.97,17.01 56.853,0.891 36.97,0.891 L36.97,0.891 C17.088,0.891 0.97,17.01 0.97,36.891" id="path-6"></path>
        <path d="M0.97,36.891 C0.97,56.773 17.088,72.891 36.97,72.891 L36.97,72.891 C56.853,72.891 72.97,56.773 72.97,36.891 L72.97,36.891 C72.97,17.01 56.853,0.891 36.97,0.891 L36.97,0.891 C17.088,0.891 0.97,17.01 0.97,36.891" id="path-8"></path>
        <path d="M36.97,72.891 C56.853,72.891 72.97,56.773 72.97,36.891 C72.97,17.01 56.853,0.891 36.97,0.891 C17.088,0.891 0.97,17.01 0.97,36.891 C0.97,56.773 17.088,72.891 36.97,72.891 Z" id="path-10"></path>
    </defs>
    <g id="Page-1" stroke="none" stroke-width="1" fill="none" fill-rule="evenodd">
        <g id="マイページ-top-無料会員-優待なし画面" transform="translate(-600.000000, -857.000000)">
            <g id="Group" transform="translate(0.000000, 735.000000)">
                <g id="会員ステータス" transform="translate(0.000000, 102.000000)">
                    <g id="member_light" transform="translate(600.000000, 20.000000)">
                        <g id="Group-20" transform="translate(5.000000, 7.160800)">
                            <polygon id="Fill-1" fill="#FF6F63" points="18.9999 56.9997 18.9999 98.9997 39.8399 92.7057 60.9989 98.9997 60.9989 56.9997"></polygon>
                            <path d="M76.8814,40.8394 C76.8814,61.2084 60.3694,77.7214 39.9994,77.7214 C19.6304,77.7214 3.1184,61.2084 3.1184,40.8394 C3.1184,20.4704 19.6304,3.9574 39.9994,3.9574 C60.3694,3.9574 76.8814,20.4704 76.8814,40.8394" id="Fill-2" fill="#FFDCD9"></path>
                            <g id="Group-6">
                                <mask id="mask-2" fill="white">
                                    <use xlink:href="#path-1"></use>
                                </mask>
                                <g id="Clip-5"></g>
                                <path d="M0,40.57 L0,41.108 C0.146,63.074 17.999,80.84 40,80.84 L40,80.84 C62.091,80.84 79.999,62.93 79.999,40.839 L79.999,40.839 C79.999,18.748 62.091,0.84 40,0.84 L40,0.84 C17.999,0.84 0.146,18.604 0,40.57 M3.849,40.784 C3.849,20.902 19.967,4.784 39.849,4.784 L39.849,4.784 C59.732,4.784 75.849,20.902 75.849,40.784 L75.849,40.784 C75.849,60.667 59.732,76.784 39.849,76.784 L39.849,76.784 C19.967,76.784 3.849,60.667 3.849,40.784" id="Fill-4" fill="url(#linearGradient-3)" mask="url(#mask-2)"></path>
                            </g>
                            <g id="Group-19" transform="translate(3.000000, 4.000000)">
                                <g id="Group-9">
                                    <mask id="mask-5" fill="white">
                                        <use xlink:href="#path-4"></use>
                                    </mask>
                                    <g id="Clip-8"></g>
                                    <polygon id="Fill-7" fill="#8E2421" mask="url(#mask-5)" points="75.6411 18.4029 58.6951 31.8089 56.0921 27.6739 72.4261 14.9449"></polygon>
                                </g>
                                <g id="Group-12">
                                    <mask id="mask-7" fill="white">
                                        <use xlink:href="#path-6"></use>
                                    </mask>
                                    <g id="Clip-11"></g>
                                    <path d="M25.3081,25.7935 C16.0331,30.7695 12.8151,37.2545 13.0531,40.9225 C13.2461,43.9095 15.5431,47.9925 16.9051,49.7025 C19.6971,53.2105 29.1391,61.8325 43.4381,56.7295 C57.6151,51.6685 61.7981,40.6135 58.3221,28.1395 C54.3551,20.4295 34.8971,20.6495 25.3081,25.7935" id="Fill-10" fill="#8E2421" mask="url(#mask-7)"></path>
                                </g>
                                <g id="Group-15">
                                    <mask id="mask-9" fill="white">
                                        <use xlink:href="#path-8"></use>
                                    </mask>
                                    <g id="Clip-14"></g>
                                    <path d="M40.5347,45.2701 C51.1807,41.5371 58.4227,32.4871 55.7837,28.2371 C53.6887,24.8611 41.6877,21.8111 30.9617,25.5741 C19.6107,29.5541 12.9197,39.0081 15.9847,43.0781 C19.3337,47.5251 29.1967,49.2471 40.5347,45.2701" id="Fill-13" fill="#C2A098" mask="url(#mask-9)"></path>
                                </g>
                                <g id="Group-18">
                                    <mask id="mask-11" fill="white">
                                        <use xlink:href="#path-10"></use>
                                    </mask>
                                    <g id="Clip-17"></g>
                                    <path d="M54.8384,30.4849 C55.2124,28.1179 54.4214,28.1709 54.0554,26.0909 C53.3994,22.3739 50.5524,21.0779 48.6354,19.9969 C47.7814,19.5149 46.9064,17.3809 42.5254,16.7149 C40.1974,16.3619 38.7964,13.0799 34.0394,14.3389 C32.9944,14.6169 31.2114,13.6609 26.9844,15.3039 C25.4314,15.9079 23.7374,18.0649 22.4624,19.0909 C20.7054,20.5059 18.8424,20.8959 18.5384,23.7309 C18.2824,26.1229 17.5924,25.9109 16.2754,27.1249 C14.5914,28.6799 15.3534,32.0109 14.6564,34.1759 C14.2484,35.4489 15.1814,39.1929 15.9264,40.4559 C17.1834,42.5859 20.6814,44.4619 24.0064,45.1959 C28.4814,46.1839 35.3454,45.1639 40.0584,43.3649 C45.9844,41.1019 48.7454,38.8849 51.8794,35.5069 C53.7394,33.5029 54.8204,30.5969 54.8384,30.4849" id="Fill-16" fill="#FFFFFF" mask="url(#mask-11)"></path>
                                </g>
                            </g>
                        </g>
                    </g>
                </g>
            </g>
        </g>
    </g>
</svg>