<?xml version="1.0" encoding="UTF-8"?>
<svg width="90px" height="114px" viewBox="0 0 90 114" version="1.1" xmlns="http://www.w3.org/2000/svg" xmlns:xlink="http://www.w3.org/1999/xlink">
    <title>member_status_premium</title>
    <defs>
        <path d="M0.091,39.95 C0.091,61.49 17.552,78.951 39.092,78.951 L39.092,78.951 C60.631,78.951 78.092,61.49 78.092,39.95 L78.092,39.95 C78.092,18.411 60.631,0.95 39.092,0.95 L39.092,0.95 C17.552,0.95 0.091,18.411 0.091,39.95 M3.092,39.95 C3.092,20.067 19.209,3.95 39.092,3.95 L39.092,3.95 C58.974,3.95 75.092,20.067 75.092,39.95 L75.092,39.95 C75.092,59.832 58.974,75.95 39.092,75.95 L39.092,75.95 C19.209,75.95 3.092,59.832 3.092,39.95" id="path-1"></path>
        <linearGradient x1="49.9997253%" y1="99.9989489%" x2="49.9997253%" y2="0.000230894476%" id="linearGradient-3">
            <stop stop-color="#935B14" offset="0%"></stop>
            <stop stop-color="#EBC887" offset="100%"></stop>
        </linearGradient>
        <path d="M27.622,0.07 L28.0462168,0.071916747 C42.0326652,0.1982553 54.723,6.55359 54.723,14.235 L54.723,14.235 L54.7173866,14.521091 C54.5978503,17.579135 52.5760909,20.83 49.315,23.102 L49.315,23.102 L48.9921912,23.3219055 C44.0850969,26.5918927 36.2692391,28.57 27.505,28.57 L27.505,28.57 L26.9292427,28.567077 C18.3076909,28.4795 10.3708478,26.4290652 5.594,23.102 L5.594,23.102 L5.28329266,22.8793332 C2.11904297,20.5477383 0.396,17.276875 0.396,14.235 C0.396,6.476 13.351,0.07 27.622,0.07 L27.622,0.07 Z M27.564,7.422 L27.0505637,7.42692772 C14.9560814,7.59114641 6.90533333,11.1347778 4.586,18.077 L4.586,18.077 L4.547878,18.191414 C4.42951,18.55136 4.2883,19.0469 4.48,19.28 L4.48,19.28 L4.66391811,19.4957032 C5.26409091,20.178686 5.73954545,20.5146364 6.215,20.901 C9.802,23.818 17.935,26.635 26.944,26.635 L26.944,26.635 L27.253625,26.634125 L27.253625,26.634125 L27.564,26.631 L28.0678643,26.635435 C37.1217911,26.6592387 45.3086909,23.8297636 48.91,20.901 L48.91,20.901 L49.0285735,20.8069472 C49.4942959,20.4451775 49.8670769,20.2368462 50.504,19.467 L50.504,19.467 L50.646,19.28 L50.6918918,19.2052352 C50.8059339,18.942876 50.548,18.5552727 50.438,18.228 L50.438,18.228 L50.3351355,17.932485 C47.8547518,11.0836346 39.7666761,7.49101408 27.564,7.422 L27.564,7.422 Z" id="path-4"></path>
        <path d="M29.621,0.764 L30.3007047,0.768098183 C37.7638054,0.858177336 44.7640588,2.43055882 50.079,5.221 L50.079,5.221 L50.4416766,5.41470233 C55.8279735,8.34174669 58.787,12.2316522 58.787,16.401 L58.787,16.401 L58.7830247,16.6731852 C58.7618889,17.3921975 58.657,18.0693333 58.481,19.008 L58.481,19.008 L58.3995116,19.5142399 C56.6192453,30.3528251 53.7530121,33.6618986 51.3267194,36.0748757 C45.3767865,40.4212841 38.0434762,42.987 30.111,42.987 L30.111,42.987 L29.5156522,42.982177 C20.0655021,42.8289604 11.5007923,39.0346327 5.1630473,32.9410444 C3.46559783,30.3775811 1.80870679,26.3881332 0.644,19.008 L0.644,19.008 L0.581358025,18.6676667 C0.423333333,17.789642 0.338,17.1352222 0.338,16.401 L0.338,16.401 L0.342377907,16.123465 C0.473627599,11.9668743 3.55208696,8.10491304 9.046,5.221 C14.522,2.346 21.788,0.764 29.621,0.764 L29.621,0.764 Z M29.621,2.231 L29.505,2.231 L29.079776,2.23291166 C15.062474,2.358915 2.576,8.69739 2.576,16.359 L2.576,16.359 L2.58129514,16.6521446 C2.69064941,19.6761914 4.49134375,22.5370312 7.757,24.801 C12.653,28.194 20.64,30.325 29.505,30.325 L29.505,30.325 L29.621,30.325 L30.1978222,30.3219877 C38.8308426,30.2317514 46.579413,28.1202391 51.368,24.801 L51.368,24.801 L51.6794504,24.5800575 C54.8503574,22.2780322 56.549,19.393125 56.549,16.359 L56.549,16.359 L56.5451896,16.12724 C56.294075,8.4928589 43.66811,2.231 29.621,2.231 L29.621,2.231 Z" id="path-6"></path>
        <path d="M24.275,0.331 L24.7947423,0.336009897 C37.0378208,0.503132523 45.1910833,4.11776389 47.54,11.201 L47.54,11.201 L47.5748355,11.3065935 C47.6949256,11.674595 47.8423636,12.1887273 47.646,12.426 L47.646,12.426 L47.459698,12.6468009 C46.8518017,13.3456364 46.3707273,13.6865455 45.888,14.082 L45.888,14.082 L45.6807194,14.2478073 C41.8645405,17.2298562 33.4746364,20.0605273 24.275,19.927 L24.275,19.927 L23.7647651,19.9315439 C14.5963749,19.9560932 6.30650909,17.0686909 2.662,14.082 L2.662,14.082 L2.51730579,13.9645875 C2.03408264,13.5759174 1.53763636,13.2005455 0.904,12.426 L0.904,12.426 L0.855033809,12.3469354 C0.723719008,12.0585207 0.899090909,11.5355455 1.01,11.201 C3.392,4.018 11.742,0.402 24.275,0.331 L24.275,0.331 Z" id="path-8"></path>
        <path d="M22.1628028,0.722525057 C22.5520689,1.25344766 22.9271322,1.79543614 23.2874329,2.34793094 C17.9764135,3.36610996 10.5618008,4.78672749 1.044,6.61 L1.044,6.61 L0.969115741,6.61616667 C0.839833333,6.61380556 0.694,6.55033333 0.619,6.457 L0.619,6.457 L0.569248,6.379712 C0.50832,6.26416 0.4712,6.1056 0.484,5.988 L0.484,5.988 L0.503,5.786 L0.519884259,5.71352778 C0.562083333,5.5945 0.670833333,5.48866667 0.79,5.462 C2.99847727,4.97231818 5.09394783,4.50765599 7.07643735,4.06803055 L8.38135938,3.77865625 C10.9577287,3.2073267 13.333253,2.68051369 15.5079931,2.19825777 L16.5786314,1.96084309 C18.510794,1.53239087 20.2742506,1.14138467 21.8690481,0.787855748 L22.1628028,0.722525057 Z" id="path-10"></path>
        <path d="M24.969,0.808 L25.267559,0.812760835 C28.056409,0.901350773 30.8910345,2.21848276 32.208,4.108 L32.208,4.108 L32.3404094,4.30022862 C36.4877326,10.3948863 36.2782708,17.2112188 25.759,29.582 L25.759,29.582 L25.5908084,29.7801396 C23.9027033,31.7721389 20.4518,35.9560333 18.938,39.64 L18.938,39.64 L18.8803452,39.7488991 C18.4429917,40.4419529 16.4221053,41.8176316 16.172,42.189 L16.172,42.189 L12.556,42.189 L12.3871464,42.0363764 C10.9360725,40.7436036 8.42634615,38.9519615 7.885,38.451 L7.885,38.451 L7.66636666,38.2361703 C3.94852441,34.6091797 0.203230769,32.2291923 0.623,25.915 L0.623,25.915 L0.649506564,25.5837747 C1.17138425,20.0298828 5.28863462,18.3840577 7.004,18.234 L7.004,18.234 L7.29892957,18.2112533 C9.91682015,18.0401135 11.5628214,18.7789286 13.286,20.694 L13.286,20.694 L13.3985419,20.8201028 C14.0847673,21.5938089 14.9654211,22.6476316 15.873,22.497 L15.873,22.497 L15.9433879,22.4334959 C16.3522275,21.9824525 16.0744,20.6202 15.987,19.313 L15.987,19.313 L15.9561804,18.8345926 C15.7100237,14.8418994 15.7356154,10.724 16.401,8.274 L16.401,8.274 L16.4768635,8.00958211 C17.2275422,5.52519144 19.1660345,2.60503448 21.827,1.43 C22.795,1.003 23.875,0.808 24.969,0.808" id="path-12"></path>
        <radialGradient cx="29.5979846%" cy="-9.86638428%" fx="29.5979846%" fy="-9.86638428%" r="129.704392%" gradientTransform="translate(0.295980,-0.098664),scale(1.000000,0.828005),rotate(82.670266),translate(-0.295980,0.098664)" id="radialGradient-14">
            <stop stop-color="#FFFCFB" offset="0%"></stop>
            <stop stop-color="#FCFBFA" offset="84.1269841%"></stop>
            <stop stop-color="#8A311D" offset="100%"></stop>
        </radialGradient>
        <path d="M24.1424525,0.725862861 C24.5330611,1.38820771 24.9030687,2.06415243 25.251594,2.75281589 C19.0255703,3.77801059 11.1204091,5.08032886 1.534,6.66 L1.534,6.66 L1.441144,6.66528 C1.30972,6.66064 1.155,6.6112 1.063,6.54 L1.063,6.54 L0.769,6.313 L0.716041667,6.26050926 C0.636527778,6.16166667 0.6025,6.01166667 0.64,5.895 L0.64,5.895 L0.784,5.445 L0.815027778,5.37608796 C0.880027778,5.26305556 1.00683333,5.16333333 1.126,5.14 C10.1393333,3.4125 17.6707222,1.96763889 23.7184306,0.807152778 L24.1424525,0.725862861 Z" id="path-15"></path>
        <polygon id="path-17" points="19.373 0.65 20.626 15.606 34.608 19.979 19.689 21.162 14.75 36.615 13.969 19.738 0.709 15.479 14.5 15.099"></polygon>
        <linearGradient x1="5.34757833%" y1="42.7823565%" x2="93.8458153%" y2="57.6073847%" id="linearGradient-19">
            <stop stop-color="#FFFFB8" offset="0%"></stop>
            <stop stop-color="#FFFF00" offset="100%"></stop>
        </linearGradient>
    </defs>
    <g id="Page-1" stroke="none" stroke-width="1" fill="none" fill-rule="evenodd">
        <g id="マイページ---会員ステータス---おしるこ会員" transform="translate(-48.000000, -2895.000000)">
            <g id="会員ステータス" transform="translate(0.000000, 1507.000000)">
                <g id="購入" transform="translate(0.000000, 580.000000)">
                    <g id="ポイント購入" transform="translate(0.000000, 90.000000)">
                        <g id="PREMIUM-会員" transform="translate(48.000000, 718.000000)">
                            <g id="Group-32" transform="translate(6.000000, 8.000000)">
                                <polygon id="Fill-1" fill="#FF6F63" points="17.7519 56.1256 17.7519 98.1246 38.5909 91.8316 59.7509 98.1246 59.7509 56.1256"></polygon>
                                <g id="Group-4" transform="translate(0.000000, 0.125000)">
                                    <mask id="mask-2" fill="white">
                                        <use xlink:href="#path-1"></use>
                                    </mask>
                                    <g id="Clip-3"></g>
                                    <path d="M0.091,39.95 C0.091,61.49 17.552,78.951 39.092,78.951 L39.092,78.951 C60.631,78.951 78.092,61.49 78.092,39.95 L78.092,39.95 C78.092,18.411 60.631,0.95 39.092,0.95 L39.092,0.95 C17.552,0.95 0.091,18.411 0.091,39.95 M3.092,39.95 C3.092,20.067 19.209,3.95 39.092,3.95 L39.092,3.95 C58.974,3.95 75.092,20.067 75.092,39.95 L75.092,39.95 C75.092,59.832 58.974,75.95 39.092,75.95 L39.092,75.95 C19.209,75.95 3.092,59.832 3.092,39.95" id="Fill-2" fill="url(#linearGradient-3)" mask="url(#mask-2)"></path>
                                </g>
                                <g id="Group-9" transform="translate(3.000000, 3.125000)">
                                    <path d="M35.9157,72.5969 C55.6907,72.5969 71.7217,56.5669 71.7217,36.7909 C71.7217,17.0169 55.6907,0.9869 35.9157,0.9869 C16.1417,0.9869 0.1107,17.0169 0.1107,36.7909 C0.1107,56.5669 16.1417,72.5969 35.9157,72.5969" id="Fill-5" fill="#81BF5C"></path>
                                    <path d="M36.111,72.9865 C55.993,72.9865 72.111,56.8685 72.111,36.9865 C72.111,17.1035 55.993,0.9865 36.111,0.9865 C16.228,0.9865 0.111,17.1035 0.111,36.9865 C0.111,56.8685 16.228,72.9865 36.111,72.9865" id="Fill-7" fill="#CF9C09"></path>
                                </g>
                                <g id="Group-28" transform="translate(9.000000, 18.125000)">
                                    <g id="Group-12" transform="translate(2.000000, 17.000000)">
                                        <mask id="mask-5" fill="white">
                                            <use xlink:href="#path-4"></use>
                                        </mask>
                                        <g id="Clip-11"></g>
                                        <polygon id="Fill-10" fill="#C2A098" mask="url(#mask-5)" points="-1.549 30.516 56.669 30.516 56.669 -1.876 -1.549 -1.876"></polygon>
                                    </g>
                                    <g id="Group-15" transform="translate(0.000000, 15.000000)">
                                        <mask id="mask-7" fill="white">
                                            <use xlink:href="#path-6"></use>
                                        </mask>
                                        <g id="Clip-14"></g>
                                        <polygon id="Fill-13" fill="#8E2421" mask="url(#mask-7)" points="-1.609 46.995 60.734 46.995 60.734 -1.182 -1.609 -1.182"></polygon>
                                    </g>
                                    <g id="Group-18" transform="translate(5.000000, 24.000000)">
                                        <mask id="mask-9" fill="white">
                                            <use xlink:href="#path-8"></use>
                                        </mask>
                                        <g id="Clip-17"></g>
                                        <polygon id="Fill-16" fill="#8E2421" mask="url(#mask-9)" points="-1.138 21.878 49.687 21.878 49.687 -1.616 -1.138 -1.616"></polygon>
                                    </g>
                                    <g id="Group-21" transform="translate(37.000000, 0.000000)">
                                        <mask id="mask-11" fill="white">
                                            <use xlink:href="#path-10"></use>
                                        </mask>
                                        <g id="Clip-20"></g>
                                        <polygon id="Fill-19" fill="#8E2421" mask="url(#mask-11)" points="-1.465 8.562 27.211 8.562 27.211 -1.871 -1.465 -1.871"></polygon>
                                    </g>
                                    <g id="Group-24" transform="translate(14.000000, 0.000000)">
                                        <mask id="mask-13" fill="white">
                                            <use xlink:href="#path-12"></use>
                                        </mask>
                                        <g id="Clip-23"></g>
                                        <path d="M21.827,1.43 C19.071,2.647 17.09,5.736 16.401,8.274 L16.401,8.274 C15.709,10.822 15.709,15.174 15.987,19.313 L15.987,19.313 C16.079,20.689 16.382,22.126 15.873,22.497 L15.873,22.497 C14.915,22.656 13.987,21.473 13.286,20.694 L13.286,20.694 C11.499,18.708 9.795,17.987 7.004,18.234 L7.004,18.234 C5.255,18.387 1.009,20.095 0.623,25.915 L0.623,25.915 C0.195,32.353 4.097,34.701 7.885,38.451 L7.885,38.451 C8.448,38.972 11.14,40.889 12.556,42.189 L12.556,42.189 L16.172,42.189 C16.436,41.797 18.673,40.286 18.938,39.64 L18.938,39.64 C20.504,35.829 24.143,31.483 25.759,29.582 L25.759,29.582 C36.389,17.081 36.491,10.252 32.208,4.108 L32.208,4.108 C30.844,2.151 27.852,0.808 24.969,0.808 L24.969,0.808 C23.875,0.808 22.795,1.003 21.827,1.43" id="Fill-22" fill="url(#radialGradient-14)" mask="url(#mask-13)"></path>
                                    </g>
                                    <g id="Group-27" transform="translate(37.000000, 3.000000)">
                                        <mask id="mask-16" fill="white">
                                            <use xlink:href="#path-15"></use>
                                        </mask>
                                        <g id="Clip-26"></g>
                                        <polygon id="Fill-25" fill="#8E2421" mask="url(#mask-16)" points="-1.321 8.611 29.141 8.611 29.141 -1.801 -1.321 -1.801"></polygon>
                                    </g>
                                </g>
                                <g id="Group-31" transform="translate(4.000000, 10.125000)">
                                    <mask id="mask-18" fill="white">
                                        <use xlink:href="#path-17"></use>
                                    </mask>
                                    <g id="Clip-30"></g>
                                    <polygon id="Fill-29" fill="url(#linearGradient-19)" mask="url(#mask-18)" points="19.689 21.162 34.608 19.979 20.626 15.606 19.373 0.65 14.5 15.099 0.709 15.479 13.969 19.738 14.75 36.615"></polygon>
                                </g>
                            </g>
                        </g>
                    </g>
                </g>
            </g>
        </g>
    </g>
</svg>