<?xml version="1.0" encoding="UTF-8"?>
<svg width="90px" height="114px" viewBox="0 0 90 114" version="1.1" xmlns="http://www.w3.org/2000/svg" xmlns:xlink="http://www.w3.org/1999/xlink">
    <title>member_status__omochi</title>
    <defs>
        <path d="M11.483,11.483 C4.697,18.269 0.499,27.645 0.499,38 L0.499,38 C0.499,48.355 4.697,57.731 11.483,64.517 L11.483,64.517 C18.269,71.303 27.644,75.5 38,75.5 L38,75.5 C48.355,75.5 57.73,71.303 64.516,64.517 L64.516,64.517 C71.302,57.731 75.5,48.355 75.5,38 L75.5,38 C75.5,27.645 71.302,18.269 64.516,11.483 L64.516,11.483 C57.73,4.697 48.355,0.5 38,0.5 L38,0.5 C27.644,0.5 18.269,4.697 11.483,11.483 L11.483,11.483 Z" id="path-1"></path>
        <path d="M39,0 L39.6449035,0.005224917 C60.8854739,0.3496278 77.999,17.67639 77.999,39 L77.999,39 L77.9937751,39.6449332 C77.6493723,60.8864739 60.32262,78 39,78 L39,78 L38.3550668,77.9947751 C17.1135261,77.6503722 0,60.32361 0,39 C0,17.461 17.461,0 39,0 L39,0 Z M39,3 L38.4046816,3.00482305 C18.7972518,3.3227364 3,19.31682 3,39 C3,58.882 19.118,75 39,75 L39,75 L39.5953184,74.995177 C59.2027482,74.6772636 75,58.68318 75,39 L75,39 L74.995177,38.4046816 C74.6772636,18.7972518 58.68318,3 39,3 L39,3 Z" id="path-3"></path>
        <linearGradient x1="13.2653061%" y1="13.2644211%" x2="13.2653061%" y2="1058.17304%" id="linearGradient-5">
            <stop stop-color="#AEEAED" offset="0%"></stop>
            <stop stop-color="#53979A" offset="100%"></stop>
        </linearGradient>
        <path d="M0,39 C0,60.539 17.461,78 39,78 L39,78 C60.538,78 77.999,60.539 77.999,39 L77.999,39 C77.999,17.461 60.538,0 39,0 L39,0 C17.461,0 0,17.461 0,39 M3,39 C3,19.118 19.118,3 39,3 L39,3 C58.882,3 75,19.118 75,39 L75,39 C75,58.882 58.882,75 39,75 L39,75 C19.118,75 3,58.882 3,39" id="path-6"></path>
        <linearGradient x1="50.000641%" y1="9.74158974%" x2="50.000641%" y2="94.6301282%" id="linearGradient-8">
            <stop stop-color="#AEEAED" offset="0%"></stop>
            <stop stop-color="#53979A" offset="100%"></stop>
        </linearGradient>
        <path d="M0.148,36.637 C0.148,56.519 16.265,72.637 36.148,72.637 L36.148,72.637 C56.03,72.637 72.148,56.519 72.148,36.637 L72.148,36.637 C72.148,16.755 56.03,0.637 36.148,0.637 L36.148,0.637 C16.265,0.637 0.148,16.755 0.148,36.637 L0.148,36.637 Z" id="path-9"></path>
        <linearGradient x1="50%" y1="76.8957202%" x2="50%" y2="100%" id="linearGradient-11">
            <stop stop-color="#FFFFFF" offset="0%"></stop>
            <stop stop-color="#6EBEC2" offset="100%"></stop>
        </linearGradient>
        <path d="M36.148,72.637 C56.03,72.637 72.148,56.519 72.148,36.637 C72.148,16.755 56.03,0.637 36.148,0.637 C16.265,0.637 0.148,16.755 0.148,36.637 C0.148,56.519 16.265,72.637 36.148,72.637 Z" id="path-12"></path>
    </defs>
    <g id="Page-1" stroke="none" stroke-width="1" fill="none" fill-rule="evenodd">
        <g id="マイページ---会員ステータス---おしるこ会員" transform="translate(-48.000000, -2218.000000)">
            <g id="会員ステータス" transform="translate(0.000000, 1507.000000)">
                <g id="購入" transform="translate(0.000000, 580.000000)">
                    <g id="ポイント購入" transform="translate(0.000000, 90.000000)">
                        <g id="LITE-会員" transform="translate(48.000000, 41.000000)">
                            <g id="Group-22" transform="translate(6.000000, 9.000000)">
                                <polygon id="Fill-1" fill="#FF6F63" points="17.9999 55.0002 17.9999 96.9992 38.8389 90.7062 59.9989 96.9992 59.9989 55.0002"></polygon>
                                <g id="Group-4" transform="translate(1.000000, 1.000000)">
                                    <mask id="mask-2" fill="white">
                                        <use xlink:href="#path-1"></use>
                                    </mask>
                                    <g id="Clip-3"></g>
                                    <polygon id="Fill-2" fill="#6EBEC2" mask="url(#mask-2)" points="-3 79 79 79 79 -3 -3 -3"></polygon>
                                </g>
                                <g id="Group-7">
                                    <mask id="mask-4" fill="white">
                                        <use xlink:href="#path-3"></use>
                                    </mask>
                                    <g id="Clip-6"></g>
                                    <polygon id="Fill-5" fill="url(#linearGradient-5)" mask="url(#mask-4)" points="-10 88 88 88 88 -9.999 -10 -9.999"></polygon>
                                </g>
                                <g id="Group-10">
                                    <mask id="mask-7" fill="white">
                                        <use xlink:href="#path-6"></use>
                                    </mask>
                                    <g id="Clip-9"></g>
                                    <path d="M0,39 C0,60.539 17.461,78 39,78 L39,78 C60.538,78 77.999,60.539 77.999,39 L77.999,39 C77.999,17.461 60.538,0 39,0 L39,0 C17.461,0 0,17.461 0,39 M3,39 C3,19.118 19.118,3 39,3 L39,3 C58.882,3 75,19.118 75,39 L75,39 C75,58.882 58.882,75 39,75 L39,75 C19.118,75 3,58.882 3,39" id="Fill-8" fill="url(#linearGradient-8)" mask="url(#mask-7)"></path>
                                </g>
                                <path d="M75.1482,38.6377 C75.1482,18.7547 59.0302,2.6377 39.1482,2.6377 C19.2652,2.6377 3.1482,18.7547 3.1482,38.6377 C3.1482,58.5197 19.2652,74.6377 39.1482,74.6377 C59.0302,74.6377 75.1482,58.5197 75.1482,38.6377 Z" id="Fill-11" fill="#6EBEC2"></path>
                                <g id="Group-15" transform="translate(3.000000, 2.000000)">
                                    <mask id="mask-10" fill="white">
                                        <use xlink:href="#path-9"></use>
                                    </mask>
                                    <g id="Clip-14"></g>
                                    <path d="M72.9519,13.3613 C66.7319,14.7413 57.4019,16.8093 44.9629,19.5683 C44.7989,19.6053 44.6499,19.7733 44.6339,19.9423 L44.6089,20.1743 C44.5929,20.3433 44.6629,20.5873 44.7669,20.7153 C44.8709,20.8433 45.0909,20.9233 45.2559,20.8913 C57.6589,18.5143 66.9609,16.7323 73.1629,15.5443 L72.9519,13.3613 Z" id="Fill-13" fill="#8E2421" mask="url(#mask-10)"></path>
                                </g>
                                <g id="Group-18" transform="translate(21.000000, 16.000000)" fill="url(#linearGradient-11)">
                                    <path d="M18.45,8.808 C17.653,11.745 17.653,16.758 17.973,21.527 C18.079,23.113 18.426,24.768 17.84,25.196 C16.738,25.379 15.668,24.015 14.86,23.118 C12.801,20.831 10.838,20 7.622,20.283 C5.607,20.461 0.713,22.428 0.27,29.134 C-0.223,36.552 4.271,39.258 8.637,43.577 C9.286,44.178 12.388,46.387 14.019,47.886 L18.184,47.886 C18.489,47.433 21.066,45.692 21.371,44.949 C23.176,40.557 27.37,35.549 29.232,33.361 C41.479,18.956 41.598,11.087 36.662,4.009 C35.09,1.754 31.643,0.206 28.321,0.206 C27.06,0.206 25.816,0.43 24.701,0.922 C21.526,2.324 19.243,5.884 18.45,8.808 Z" id="Fill-16"></path>
                                </g>
                                <g id="Group-21" transform="translate(3.000000, 2.000000)">
                                    <mask id="mask-13" fill="white">
                                        <use xlink:href="#path-12"></use>
                                    </mask>
                                    <g id="Clip-20"></g>
                                    <path d="M75.3572,16.8994 C67.8152,18.3454 57.8122,20.2644 45.3492,22.6554 C45.1852,22.6864 45.0072,22.8444 44.9562,23.0054 L44.7902,23.5244 C44.7392,23.6854 44.8052,23.9014 44.9382,24.0044 L45.2772,24.2664 C45.4112,24.3704 45.6552,24.4324 45.8212,24.4054 C58.0482,22.3904 67.9042,20.7674 75.3872,19.5344 L75.3572,16.8994 Z" id="Fill-19" fill="#8E2421" mask="url(#mask-13)"></path>
                                </g>
                            </g>
                        </g>
                    </g>
                </g>
            </g>
        </g>
    </g>
</svg>