<?xml version="1.0" encoding="UTF-8"?>
<svg width="90px" height="114px" viewBox="0 0 90 114" version="1.1" xmlns="http://www.w3.org/2000/svg" xmlns:xlink="http://www.w3.org/1999/xlink">
    <title>member_status_oshiruco</title>
    <defs>
        <path d="M0.091,39.95 C0.091,61.489 17.552,78.95 39.092,78.95 L39.092,78.95 C60.631,78.95 78.092,61.489 78.092,39.95 L78.092,39.95 C78.092,18.411 60.631,0.95 39.092,0.95 L39.092,0.95 C17.552,0.95 0.091,18.411 0.091,39.95 M3.092,39.95 C3.092,20.068 19.209,3.95 39.092,3.95 L39.092,3.95 C58.974,3.95 75.092,20.068 75.092,39.95 L75.092,39.95 C75.092,59.833 58.974,75.95 39.092,75.95 L39.092,75.95 C19.209,75.95 3.092,59.833 3.092,39.95" id="path-1"></path>
        <linearGradient x1="49.9997253%" y1="100.000231%" x2="49.9997253%" y2="0.000230897436%" id="linearGradient-3">
            <stop stop-color="#548541" offset="0%"></stop>
            <stop stop-color="#A7D397" offset="100%"></stop>
        </linearGradient>
        <path d="M27.622,0.07 L28.0462168,0.071916748 C42.0326652,0.1982554 54.723,6.5536 54.723,14.236 L54.723,14.236 L54.7173866,14.5220001 C54.5978503,17.5790753 52.5760909,20.829 49.315,23.101 L49.315,23.101 L48.9921912,23.3209693 C44.0850969,26.5918927 36.2692391,28.57 27.505,28.57 L27.505,28.57 L26.9292427,28.567077 C18.3076909,28.4794995 10.3708478,26.4290435 5.594,23.101 L5.594,23.101 L5.28329266,22.8783361 C2.11904297,20.5468008 0.396,17.2769063 0.396,14.236 C0.396,6.476 13.351,0.07 27.622,0.07 L27.622,0.07 Z M27.564,7.422 L27.0505637,7.42692771 C14.9560814,7.59114622 6.90533333,11.1347639 4.586,18.076 L4.586,18.076 L4.547878,18.190684 C4.42951,18.55135 4.2883,19.0468 4.48,19.279 L4.48,19.279 L4.66391811,19.4951548 C5.26409091,20.1793471 5.73954545,20.5137273 6.215,20.901 C9.803,23.818 17.94,26.636 26.952,26.636 L26.952,26.636 L27.257625,26.635125 L27.257625,26.635125 L27.564,26.632 L28.0678643,26.636305 C37.1217911,26.658239 45.3086909,23.8287818 48.91,20.901 L48.91,20.901 L49.0285735,20.8067506 C49.4942959,20.4443254 49.8670769,20.2368462 50.504,19.467 L50.504,19.467 L50.646,19.279 L50.6918918,19.2045056 C50.7603171,19.0476221 50.694831,18.8455695 50.607734,18.6379452 L50.5175928,18.4299301 C50.4879174,18.3609504 50.46,18.2928182 50.438,18.227 L50.438,18.227 L50.3351355,17.9315267 C47.8547518,11.0836346 39.7666761,7.49101408 27.564,7.422 L27.564,7.422 Z" id="path-4"></path>
        <path d="M58.3115103,0.606912837 C61.0853947,4.09766724 63.2248202,8.11522816 64.5553995,12.4852084 L64.5553995,33.4871589 C60.0613224,48.2472153 46.340141,58.986 30.111,58.986 L30.111,58.986 L29.5156522,58.9811773 C17.3846352,58.7845075 6.71268871,52.5882059 0.337562761,43.2300226 L0.337562761,2.74241622 C0.83595832,2.01080681 1.36061529,1.29852027 1.91017775,0.606912837" id="path-6"></path>
        <path d="M29.621,0.763 L30.3007047,0.767100728 C37.7638054,0.857235294 44.7640588,2.43055882 50.079,5.221 L50.079,5.221 L50.4416766,5.41470232 C55.8279735,8.34174622 58.787,12.2316304 58.787,16.4 L58.787,16.4 L58.7830247,16.6721866 C58.7618889,17.3912099 58.657,18.0684444 58.481,19.008 L58.481,19.008 L58.3995116,19.5141988 C56.6192453,30.3519205 53.7530121,33.6617554 51.3267194,36.0740611 C45.3767865,40.4204433 38.0434762,42.986 30.111,42.986 L30.111,42.986 L29.5156522,42.9811773 C20.0659973,42.8279781 11.5016898,39.0342702 5.16404356,32.9413674 C3.46591249,30.3778627 1.80881738,26.3882244 0.644,19.008 L0.644,19.008 L0.581358025,18.667369 C0.423333333,17.788642 0.338,17.1342222 0.338,16.4 L0.338,16.4 L0.342377907,16.1225288 C0.473627599,11.9668743 3.55208696,8.10491304 9.046,5.221 C14.522,2.346 21.788,0.763 29.621,0.763 L29.621,0.763 Z M29.621,2.231 L29.505,2.231 L29.079776,2.23291166 C15.062474,2.358915 2.576,8.69739 2.576,16.359 L2.576,16.359 L2.58129514,16.6520566 C2.69064941,19.6752529 4.49134375,22.5370313 7.757,24.801 C12.653,28.194 20.64,30.324 29.505,30.324 L29.505,30.324 L29.621,30.324 L30.1978222,30.3209891 C38.8308426,30.2307944 46.579413,28.1202391 51.368,24.801 L51.368,24.801 L51.6794504,24.5800547 C54.8503574,22.2779717 56.549,19.3921563 56.549,16.359 L56.549,16.359 L56.5451896,16.12724 C56.294075,8.4928589 43.66811,2.231 29.621,2.231 L29.621,2.231 Z" id="path-8"></path>
        <path d="M58.3115103,0.606912837 C61.0853947,4.09766724 63.2248202,8.11522816 64.5553995,12.4852084 L64.5553995,33.4871589 C60.0613224,48.2472153 46.340141,58.986 30.111,58.986 L30.111,58.986 L29.5156522,58.9811773 C17.3846352,58.7845075 6.71268871,52.5882059 0.337562761,43.2300226 L0.337562761,2.74241622 C0.83595832,2.01080681 1.36061529,1.29852027 1.91017775,0.606912837" id="path-10"></path>
        <path d="M24.275,0.33 L24.7947423,0.3350099 C37.0378208,0.502132716 45.1910833,4.11677778 47.54,11.201 L47.54,11.201 L47.5748355,11.3065718 C47.6949256,11.674438 47.8423636,12.1879091 47.646,12.427 L47.646,12.427 L47.459698,12.6473268 C46.8518017,13.3448099 46.3707273,13.6865455 45.888,14.082 L45.888,14.082 L45.6807194,14.2478063 C41.8645405,17.2298205 33.4746364,20.0595455 24.275,19.927 L24.275,19.927 L23.7647651,19.93148 C14.5963749,19.9551293 6.30650909,17.0686909 2.662,14.082 L2.662,14.082 L2.51730579,13.9645657 C2.03408264,13.5757603 1.53763636,13.1997273 0.904,12.427 L0.904,12.427 L0.855033809,12.3474613 C0.723719008,12.0576942 0.899090909,11.5355455 1.01,11.201 C3.392,4.017 11.742,0.401 24.275,0.33 L24.275,0.33 Z" id="path-12"></path>
        <path d="M22.1628028,0.721957033 C22.5519378,1.25270514 22.9268796,1.79451066 23.287069,2.34681446 C17.9764135,3.36610996 10.5618008,4.78672749 1.044,6.61 L1.044,6.61 L0.969115741,6.61581944 C0.839833333,6.61311111 0.694,6.55033333 0.619,6.457 L0.619,6.457 L0.569248,6.380096 C0.50832,6.2648 0.4712,6.1056 0.484,5.988 L0.484,5.988 L0.503,5.787 L0.519884259,5.71404167 C0.562083333,5.59425 0.670833333,5.488 0.79,5.463 C6.43388636,4.21106818 11.3397412,3.1228094 15.5079931,2.19822366 L16.5786314,1.96074019 C18.510794,1.53216064 20.2742506,1.1410186 21.8690481,0.78731405 L22.1628028,0.721957033 Z" id="path-14"></path>
        <path d="M24.969,0.808 L25.267559,0.812757391 C28.056409,0.901284185 30.8910345,2.21751724 32.208,4.108 L32.208,4.108 L32.3404094,4.30022862 C36.4877326,10.3948864 36.2782708,17.2112292 25.759,29.583 L25.759,29.583 L25.5908084,29.7809527 C23.9027033,31.77127 20.4518,35.9570333 18.938,39.641 L18.938,39.641 L18.8803452,39.7496077 C18.4429917,40.4410554 16.4221053,41.8176316 16.172,42.189 L16.172,42.189 L12.556,42.189 L12.3871464,42.0363763 C10.9360725,40.7436021 8.42634615,38.9519231 7.885,38.45 L7.885,38.45 L7.66636666,38.2352258 C3.94852441,34.609142 0.203230769,32.2282115 0.623,25.915 L0.623,25.915 L0.649506564,25.5837758 C1.17138425,20.0299201 5.28863462,18.3850192 7.004,18.233 L7.004,18.233 L7.29892957,18.21046 C9.91682015,18.041111 11.5628214,18.7798571 13.286,20.693 L13.286,20.693 L13.3985419,20.8191109 C14.0847673,21.5929141 14.9654211,22.6476842 15.873,22.498 L15.873,22.498 L15.9433879,22.4343531 C16.3522275,21.98245 16.0744,20.62015 15.987,19.312 L15.987,19.312 L15.9561804,18.8337078 C15.7100237,14.8419719 15.7356154,10.7249231 16.401,8.273 L16.401,8.273 L16.4768635,8.00868199 C17.2275422,5.52519025 19.1660345,2.605 21.827,1.429 C22.795,1.002 23.874,0.808 24.969,0.808" id="path-16"></path>
        <radialGradient cx="29.5979846%" cy="-9.86402426%" fx="29.5979846%" fy="-9.86402426%" r="129.704392%" gradientTransform="translate(0.295980,-0.098640),scale(1.000000,0.828005),rotate(82.670266),translate(-0.295980,0.098640)" id="radialGradient-18">
            <stop stop-color="#FFFCFB" offset="0%"></stop>
            <stop stop-color="#FCFBFA" offset="84.1269841%"></stop>
            <stop stop-color="#8A311D" offset="100%"></stop>
        </radialGradient>
        <path d="M24.142734,0.725784482 C24.5331677,1.3878563 24.9030176,2.06351458 25.2514036,2.75187909 C19.0255703,3.77818548 11.1204091,5.08123205 1.534,6.66 L1.534,6.66 L1.441144,6.664992 C1.30972,6.66032 1.155,6.612 1.063,6.54 L1.063,6.54 L0.769,6.312 L0.716041667,6.25965278 C0.636527778,6.16125 0.6025,6.0125 0.64,5.895 L0.64,5.895 L0.784,5.445 L0.815027778,5.37574537 C0.880027778,5.26238889 1.00683333,5.1635 1.126,5.141 C10.1393333,3.41183333 17.6707222,1.96738889 23.7184306,0.807087963 L24.142734,0.725784482 Z" id="path-19"></path>
    </defs>
    <g id="Page-1" stroke="none" stroke-width="1" fill="none" fill-rule="evenodd">
        <g id="マイページ---会員ステータス---おしるこ会員" transform="translate(-48.000000, -2555.000000)">
            <g id="会員ステータス" transform="translate(0.000000, 1507.000000)">
                <g id="購入" transform="translate(0.000000, 580.000000)">
                    <g id="ポイント購入" transform="translate(0.000000, 90.000000)">
                        <g id="Basic-会員" transform="translate(48.000000, 378.000000)">
                            <g id="Group-35" transform="translate(6.000000, 8.000000)">
                                <polygon id="Fill-1" fill="#FF6F63" points="17.7519 56.1247 17.7519 98.1247 38.5909 91.8307 59.7509 98.1247 59.7509 56.1247"></polygon>
                                <g id="Group-4" transform="translate(0.000000, 0.125000)">
                                    <mask id="mask-2" fill="white">
                                        <use xlink:href="#path-1"></use>
                                    </mask>
                                    <g id="Clip-3"></g>
                                    <path d="M0.091,39.95 C0.091,61.489 17.552,78.95 39.092,78.95 L39.092,78.95 C60.631,78.95 78.092,61.489 78.092,39.95 L78.092,39.95 C78.092,18.411 60.631,0.95 39.092,0.95 L39.092,0.95 C17.552,0.95 0.091,18.411 0.091,39.95 M3.092,39.95 C3.092,20.068 19.209,3.95 39.092,3.95 L39.092,3.95 C58.974,3.95 75.092,20.068 75.092,39.95 L75.092,39.95 C75.092,59.833 58.974,75.95 39.092,75.95 L39.092,75.95 C19.209,75.95 3.092,59.833 3.092,39.95" id="Fill-2" fill="url(#linearGradient-3)" mask="url(#mask-2)"></path>
                                </g>
                                <g id="Group-9" transform="translate(3.000000, 3.125000)" fill="#81BF5C">
                                    <path d="M35.9157,72.5973 C55.6907,72.5973 71.7217,56.5663 71.7217,36.7913 C71.7217,17.0163 55.6907,0.9863 35.9157,0.9863 C16.1417,0.9863 0.1107,17.0163 0.1107,36.7913 C0.1107,56.5663 16.1417,72.5973 35.9157,72.5973" id="Fill-5"></path>
                                    <path d="M36.111,72.986 C55.993,72.986 72.111,56.869 72.111,36.986 C72.111,17.104 55.993,0.986 36.111,0.986 C16.228,0.986 0.111,17.104 0.111,36.986 C0.111,56.869 16.228,72.986 36.111,72.986" id="Fill-7"></path>
                                </g>
                                <g id="Group-34" transform="translate(9.000000, 17.125000)">
                                    <g id="Group-12" transform="translate(2.000000, 18.000000)">
                                        <mask id="mask-5" fill="white">
                                            <use xlink:href="#path-4"></use>
                                        </mask>
                                        <g id="Clip-11"></g>
                                        <polygon id="Fill-10" fill="#C2A098" mask="url(#mask-5)" points="-1.549 30.517 56.669 30.517 56.669 -1.875 -1.549 -1.875"></polygon>
                                    </g>
                                    <g id="Group-15">
                                        <mask id="mask-7" fill="white">
                                            <use xlink:href="#path-6"></use>
                                        </mask>
                                        <g id="Clip-14"></g>
                                        <path d="M51.3679,40.8004 C46.4719,44.1944 38.4849,46.3234 29.6209,46.3234 L29.5629,46.3234 L29.5049,46.3234 C20.6399,46.3234 12.6529,44.1944 7.7579,40.8004 C4.3869,38.4644 2.5759,35.4894 2.5759,32.3594 C2.5759,24.6204 15.3159,18.2314 29.5049,18.2314 L29.5629,18.2314 L29.6209,18.2314 C43.8089,18.2314 56.5499,24.6204 56.5499,32.3594 C56.5499,35.4894 54.7389,38.4644 51.3679,40.8004 M29.6209,16.7634 C21.7879,16.7634 14.5219,18.3464 9.0469,21.2214 C3.4299,24.1684 0.3379,28.1394 0.3379,32.4004 C0.3379,33.2264 0.4459,33.9504 0.6439,35.0084 C2.5549,47.1154 5.7909,50.0974 8.3599,52.6264 C8.5199,52.7844 8.6789,52.9404 8.8339,53.0954 C11.2219,55.4874 18.0169,61.0484 29.5049,61.0484 C41.1079,61.0484 47.9029,55.4874 50.2919,53.0954 C50.4469,52.9404 50.6049,52.7844 50.7649,52.6264 C53.3349,50.0974 56.5709,47.1154 58.4809,35.0084 C58.6799,33.9504 58.7879,33.2264 58.7879,32.4004 C58.7879,28.1394 55.6949,24.1684 50.0789,21.2214 C44.6029,18.3464 37.3379,16.7634 29.6209,16.7634" id="Fill-13" fill="#C2A098" mask="url(#mask-7)"></path>
                                    </g>
                                    <g id="Group-18" transform="translate(0.000000, 16.000000)">
                                        <mask id="mask-9" fill="white">
                                            <use xlink:href="#path-8"></use>
                                        </mask>
                                        <g id="Clip-17"></g>
                                        <polygon id="Fill-16" fill="#8E2421" mask="url(#mask-9)" points="-1.609 46.995 60.734 46.995 60.734 -1.182 -1.609 -1.182"></polygon>
                                    </g>
                                    <g id="Group-21">
                                        <mask id="mask-11" fill="white">
                                            <use xlink:href="#path-10"></use>
                                        </mask>
                                        <g id="Clip-20"></g>
                                        <path d="M29.2751,25.3297 C16.7421,25.4007 8.3921,29.0177 6.0101,36.2007 C5.8881,36.5687 5.6881,37.1637 5.9041,37.4277 C6.6011,38.2767 7.1311,38.6467 7.6621,39.0817 C11.3751,42.1247 19.9051,45.0617 29.2751,44.9277 C38.6441,45.0617 47.1741,42.1247 50.8881,39.0817 C51.4191,38.6467 51.9481,38.2767 52.6461,37.4277 C52.8621,37.1637 52.6621,36.5687 52.5401,36.2007 C50.1581,29.0177 41.8071,25.4007 29.2751,25.3297" id="Fill-19" fill="#C2A098" mask="url(#mask-11)"></path>
                                    </g>
                                    <g id="Group-24" transform="translate(5.000000, 25.000000)">
                                        <mask id="mask-13" fill="white">
                                            <use xlink:href="#path-12"></use>
                                        </mask>
                                        <g id="Clip-23"></g>
                                        <polygon id="Fill-22" fill="#8E2421" mask="url(#mask-13)" points="-1.138 21.877 49.687 21.877 49.687 -1.616 -1.138 -1.616"></polygon>
                                    </g>
                                    <g id="Group-27" transform="translate(37.000000, 1.000000)">
                                        <mask id="mask-15" fill="white">
                                            <use xlink:href="#path-14"></use>
                                        </mask>
                                        <g id="Clip-26"></g>
                                        <polygon id="Fill-25" fill="#8E2421" mask="url(#mask-15)" points="-1.465 8.563 27.211 8.563 27.211 -1.87 -1.465 -1.87"></polygon>
                                    </g>
                                    <g id="Group-30" transform="translate(14.000000, 1.000000)">
                                        <mask id="mask-17" fill="white">
                                            <use xlink:href="#path-16"></use>
                                        </mask>
                                        <g id="Clip-29"></g>
                                        <path d="M21.827,1.429 C19.071,2.647 17.09,5.736 16.401,8.273 L16.401,8.273 C15.709,10.823 15.709,15.174 15.987,19.312 L15.987,19.312 C16.079,20.689 16.382,22.126 15.873,22.498 L15.873,22.498 C14.915,22.656 13.987,21.472 13.286,20.693 L13.286,20.693 C11.499,18.709 9.795,17.988 7.004,18.233 L7.004,18.233 C5.255,18.388 1.009,20.095 0.623,25.915 L0.623,25.915 C0.195,32.352 4.097,34.701 7.885,38.45 L7.885,38.45 C8.448,38.972 11.14,40.889 12.556,42.189 L12.556,42.189 L16.172,42.189 C16.436,41.797 18.673,40.285 18.938,39.641 L18.938,39.641 C20.504,35.83 24.143,31.482 25.759,29.583 L25.759,29.583 C36.389,17.081 36.491,10.252 32.208,4.108 L32.208,4.108 C30.844,2.15 27.852,0.808 24.969,0.808 L24.969,0.808 C23.874,0.808 22.795,1.002 21.827,1.429" id="Fill-28" fill="url(#radialGradient-18)" mask="url(#mask-17)"></path>
                                    </g>
                                    <g id="Group-33" transform="translate(37.000000, 4.000000)">
                                        <mask id="mask-20" fill="white">
                                            <use xlink:href="#path-19"></use>
                                        </mask>
                                        <g id="Clip-32"></g>
                                        <polygon id="Fill-31" fill="#8E2421" mask="url(#mask-20)" points="-1.321 8.611 29.141 8.611 29.141 -1.8 -1.321 -1.8"></polygon>
                                    </g>
                                </g>
                            </g>
                        </g>
                    </g>
                </g>
            </g>
        </g>
    </g>
</svg>