<?xml version="1.0" encoding="UTF-8"?>
<svg width="105px" height="90px" viewBox="0 0 105 90" version="1.1" xmlns="http://www.w3.org/2000/svg" xmlns:xlink="http://www.w3.org/1999/xlink">
    <!-- Generator: Sketch 55.2 (78181) - https://sketchapp.com -->
    <title>tab_menu/icon_ansin_off</title>
    <desc>Created with Sketch.</desc>
    <g id="Symbols" stroke="none" stroke-width="1" fill="none" fill-rule="evenodd">
        <g id="tab_menu/icon/icon_ansin_off" fill="#4A4A4A">
            <path d="M37.0003951,43.6547881 L65.9973794,43.3741721 C65.9312836,37.5929583 64.6172384,32.0284012 62.2431714,27 L40.7568286,27 C38.3443729,32.1097106 37.0264973,37.7730567 37.0003954,43.6547881 Z M37.0414418,45.6544845 C37.2712826,50.6978395 38.45186,55.5515658 40.4506257,60 L62.5493743,60 C64.5850983,55.4693118 65.7720967,50.5182047 65.9703318,45.374528 L37.0414418,45.6544845 Z M82.4729656,43.2147309 C82.2184885,37.1769974 80.1795572,31.6008234 76.8699148,27 L64.443029,27 C66.691435,32.058708 67.9320512,37.6055021 67.997288,43.3548181 L82.4729656,43.2147309 Z M82.4916564,45.2146437 L67.9724583,45.3551521 C67.786611,50.4850079 66.6643447,55.4349438 64.7313711,60 L78,60 C78.0619026,60 78.1224915,60.0056246 78.1812835,60.0163907 C80.8070078,55.6796377 82.3652147,50.6243061 82.4916564,45.2146437 Z M22.5081022,43.7950361 L35.000299,43.6741438 C35.0223863,37.8109215 36.2669652,32.1523036 38.556971,27 L28.1300852,27 C24.714665,31.747868 22.6524789,37.5344283 22.5081198,43.7950355 Z M22.5274406,45.7949426 C22.7478556,50.9857705 24.2871037,55.835076 26.8187165,60.0163907 C26.8775085,60.0056246 26.9380974,60 27,60 L38.2686289,60 C36.3757141,55.5295496 35.2602527,50.6900066 35.0403015,45.6738504 L22.5274406,45.7949426 Z M54.4663615,74.4365956 C63.693053,73.8396962 71.7829364,69.0722412 76.8702425,62 L63.8207187,62 C61.5334831,66.6867656 58.3663002,70.9122907 54.4663615,74.4365956 Z M61.5815037,62 L41.4184963,62 C43.8785061,66.7350797 47.2971798,70.943905 51.5,74.3425261 C55.7028202,70.943905 59.1214939,66.7350797 61.5815037,62 Z M52.8899467,14.5024823 C52.7601615,14.5008291 52.6301776,14.5 52.5,14.5 C51.6573103,14.5 50.8227375,14.5347428 49.9976357,14.602874 C46.6622183,17.593052 43.8887537,21.1126495 41.7723338,25 L61.2276662,25 C59.0875137,21.0690584 56.2754982,17.5141638 52.8899467,14.5024823 Z M56.0135669,14.7035596 C59.0374069,17.7377553 61.5545277,21.2132172 63.4886681,25 L75.2989343,25 C70.5135256,19.410249 63.7081307,15.601128 56.0135669,14.7035596 Z M48.2801377,74.2055765 C44.4963049,70.7282102 41.4167555,66.5847997 39.1792813,62 L28.1297575,62 C32.7984589,68.4903079 39.9959382,73.0395194 48.2801377,74.2055765 Z M46.6199742,15.0759836 C39.9006122,16.4112208 33.9896687,19.9905589 29.7010657,25 L39.5113319,25 C41.366803,21.3672411 43.7587945,18.0209928 46.6199774,15.0759802 Z M85.5,44.5 C85.5,62.726203 70.726203,77.5 52.5,77.5 C34.273797,77.5 19.5,62.726203 19.5,44.5 C19.5,26.2745161 34.2741642,11.5 52.5,11.5 C70.7258358,11.5 85.5,26.2745161 85.5,44.5 Z" id="Combined-Shape"></path>
        </g>
    </g>
</svg>