<?xml version="1.0" encoding="UTF-8"?>
<svg width="105px" height="90px" viewBox="0 0 105 90" version="1.1" xmlns="http://www.w3.org/2000/svg" xmlns:xlink="http://www.w3.org/1999/xlink">
    <!-- Generator: Sketch 55.2 (78181) - https://sketchapp.com -->
    <title>tab_menu/icon_friend_off</title>
    <desc>Created with Sketch.</desc>
    <g id="Symbols" stroke="none" stroke-width="1" fill="none" fill-rule="evenodd">
        <g id="tab_menu/icon/icon_friend_off" fill="#4A4A4A">
            <path d="M48.4978485,35.4921771 C50.8941503,34.1429085 53.5825944,33.0986307 56.2526739,32.5743807 C57.3212395,32.3646353 58.2914128,32.1478212 59.1741084,31.9234553 C62.3271823,31.1219986 63.0717883,30.7907332 66.1269041,29.133316 C66.6286082,28.8614743 67.2621798,28.5533802 68.0101922,28.2130181 C68.2558522,28.1012375 68.5125529,27.9865898 68.7791505,27.8694485 C69.1195369,27.719885 69.4697396,27.568973 69.8255627,27.4181359 L68.9219303,25.5501912 L86.5981381,17.0004569 L100.143646,44.9999371 L82.4674678,53.5508637 L81.8037621,52.1788839 C79.7066483,53.066367 77.302751,54.8043224 73.2713189,58.160315 C73.6099808,59.0248771 73.7163144,59.8503686 73.5786595,60.6645191 C73.1672194,63.0884006 70.1305961,66.0288252 67.3923336,65.909476 C67.2793588,66.175976 67.1539466,66.4317968 66.9963275,66.7059437 C66.5619875,67.4613909 65.9350614,68.2558466 65.0381314,69.1405255 C64.4133267,69.7560768 63.6980647,70.1252284 62.8783156,70.3197333 C62.4717646,70.4161972 62.1914299,70.4508605 61.5479626,70.5074107 C60.8389064,70.5697251 60.7608215,70.5969142 60.7200377,70.6636549 C60.6590576,70.763591 60.5842972,70.9169155 60.4903289,71.137753 C60.4499021,71.2327609 60.052349,72.2295552 59.9049622,72.5632934 C58.6413238,75.4246394 56.6482229,76.7700953 53.404197,75.7932952 C53.220232,76.0011155 52.8533647,76.4259672 52.7294477,76.5615903 C51.3683528,78.0512628 49.9323615,78.7584383 47.9727082,78.3073858 C47.6116683,78.2241631 47.2519659,78.115285 46.8915027,77.981019 C45.4573413,77.44682 44.0434403,76.5378432 42.2503564,75.0809854 C41.1863934,74.2165291 36.5847013,70.173543 36.9801574,70.5157387 C35.1410155,68.9242941 34.2313422,67.8229207 29.1932505,61.399048 C28.6286895,60.6791986 28.1680125,60.0963362 27.7261,59.54425 C24.9677288,56.0981865 22.9514671,53.9077745 21.3156096,52.7117014 L19.7790052,54.4674975 L5.00222719,41.536761 L25.0222039,18.659866 L39.798946,31.5917777 L38.7881799,32.7467262 C39.4601083,33.1124351 40.105575,33.3909051 40.6942975,33.5562095 C41.0000399,33.6420573 41.2830293,33.69503 41.5385588,33.714526 C44.0344919,33.9045935 46.8150222,34.6457205 48.4978485,35.4921771 Z M45.4359522,37.5043474 C44.2103394,37.1276852 42.6982608,36.8115242 41.3105494,36.7058487 C40.8465657,36.6704484 40.3707668,36.5813839 39.8833057,36.4445121 C38.8683517,36.1595284 37.8251737,35.676139 36.772135,35.0503533 L23.2977291,50.4468391 C25.1688061,51.8667015 27.2591379,54.1601398 30.0682023,57.6695349 C30.5172189,58.2304964 30.9836694,58.8206634 31.5538535,59.5476828 C36.394598,65.7199257 37.3264515,66.8481535 38.9432026,68.2471591 C47.2636082,75.446965 46.0620321,74.4706998 47.9386637,75.1697108 C48.1793897,75.2593768 48.4146469,75.3305867 48.6460924,75.3839369 C49.3383913,75.543283 49.8070837,75.3124684 50.5147012,74.5380047 C50.6186864,74.4241965 51.1543065,73.801702 51.3137648,73.632868 C51.7748762,73.1446445 52.1797612,72.8429598 52.7550606,72.7158629 C53.1283789,72.6333882 53.5139733,72.6567051 53.8798769,72.7904907 C55.7507196,73.4749155 56.4008393,73.0718664 57.1606624,71.3513453 C57.2808912,71.0791027 57.6681132,70.1082119 57.7298422,69.9631408 C57.8759227,69.6198334 58.0085775,69.3477745 58.1596465,69.1001986 C58.8664193,67.9435884 59.6811082,67.6599135 61.2853242,67.5189293 C61.7820872,67.475272 61.9693325,67.4521192 62.1857236,67.4007752 C62.497808,67.3267258 62.7219894,67.2110243 62.9320714,67.004054 C63.6427465,66.3030856 64.1022008,65.7208541 64.395546,65.2106392 C64.4970707,65.0340574 64.5739924,64.8748591 64.6467684,64.6992062 C64.6703235,64.6423535 64.8013546,64.3039856 64.8469932,64.1998014 C65.3291834,63.0990538 66.1406546,62.7960674 67.4968799,62.9106477 C68.5683196,63.0016095 70.4434604,61.2081979 70.6208048,60.1634259 C70.7938733,59.139823 69.3520536,57.1064687 66.4002423,54.3853678 C65.6340191,53.6790317 64.7838177,52.9364167 63.7399021,52.0543143 C63.5709192,51.9115248 60.3040379,49.1894842 59.4740092,48.4684642 C58.2703026,47.4228421 57.4195815,46.6089202 56.8347703,45.9039981 C54.2583103,45.4954293 53.2584958,46.1778137 51.5485168,48.6431178 L51.2222212,49.1139668 C49.299296,51.8763132 47.7276243,53.1740654 44.7884948,53.58718 C38.2031757,54.5135385 37.0085057,49.0896946 41.1856047,42.0416485 C42.1197259,40.4663928 43.6081823,38.9043224 45.4359522,37.5043474 Z M71.6916106,55.5724061 C75.6812577,52.2649993 78.145355,50.4936021 80.4957366,49.4749975 L71.1336594,30.1221694 C70.7419773,30.2875015 70.3572918,30.4528512 69.9859708,30.6160073 C69.7308989,30.7280842 69.4860273,30.8374487 69.2526791,30.9436273 C68.5625991,31.2576288 67.9869061,31.5375776 67.556782,31.7706344 C67.4761664,31.8143689 66.6372322,32.2782927 66.3549019,32.4291166 C65.8242192,32.7126131 65.3308348,32.9567706 64.7913561,33.1967776 C63.4362219,33.799659 61.8791283,34.3312826 59.9131555,34.8309988 C58.9755362,35.0693254 57.9517466,35.2981216 56.8305871,35.5181905 C51.3789482,36.5885788 45.7741071,40.1854919 43.7662122,43.5715063 C40.6381077,48.8495772 41.1277566,51.0726002 44.3707637,50.6164056 C46.2961512,50.3457793 47.2681002,49.5432268 48.7600459,47.3999969 L49.0834527,46.9333053 C51.5189875,43.4219556 53.5958329,42.1962948 57.9618021,43.0586341 L58.5585496,43.1764999 L58.9046566,43.6767097 C59.2883551,44.2312485 60.1143528,45.050888 61.4413887,46.2036424 C62.2438162,46.900686 65.4862784,49.6023801 65.6761796,49.7628454 C66.7503572,50.6705191 67.6310671,51.439782 68.4336103,52.1795993 C69.7688664,53.4104932 70.8597914,54.5297166 71.6916106,55.5724061 Z M72.9290386,26.944511 L83.8616344,49.5438385 L96.1365673,43.6057874 L85.2039419,21.007312 L72.9290386,26.944511 Z M19.4970748,50.2343425 L35.5656674,31.8736179 L25.3040983,22.893174 L9.2355417,41.2547679 L19.4970748,50.2343425 Z" id="Combined-Shape"></path>
        </g>
    </g>
</svg>