<?xml version="1.0" encoding="UTF-8"?>
<svg width="105px" height="90px" viewBox="0 0 105 90" version="1.1" xmlns="http://www.w3.org/2000/svg" xmlns:xlink="http://www.w3.org/1999/xlink">
    <!-- Generator: Sketch 55.2 (78181) - https://sketchapp.com -->
    <title>tab_menu/icon_ansin_on</title>
    <desc>Created with Sketch.</desc>
    <g id="Symbols" stroke="none" stroke-width="1" fill="none" fill-rule="evenodd">
        <g id="tab_menu/icon/icon_ansin_on" fill="#4A4A4A">
            <g id="Group-9" transform="translate(19.000000, 11.000000)">
                <path d="M18.0049,32.6552 L46.9869,32.3742 C46.9219,26.6232 45.6219,21.0522 43.2369,16.0002 L21.7629,16.0002 C19.3399,21.1342 18.0309,26.8032 18.0049,32.6552" id="Fill-1"></path>
                <path d="M32.5,63.3207 C36.682,59.9307 40.08,55.7177 42.531,50.9997 L22.469,50.9997 C24.92,55.7177 28.318,59.9307 32.5,63.3207" id="Fill-3"></path>
                <path d="M21.5,48.9999 L43.5,48.9999 C45.557,44.4339 46.752,39.4709 46.955,34.3749 L18.054,34.6549 C18.288,39.6519 19.48,44.5179 21.5,48.9999" id="Fill-5"></path>
                <path d="M29.3057,63.2006 C25.5317,59.7236 22.4567,55.5746 20.2227,50.9996 L9.1567,50.9996 C8.6957,50.3606 8.2527,49.7076 7.8417,49.0316 C7.8957,49.0226 7.9447,48.9996 7.9997,48.9996 L19.3067,48.9996 C17.3947,44.4976 16.2787,39.6456 16.0547,34.6746 L3.5337,34.7956 C3.5147,34.3656 3.4997,33.9346 3.4997,33.4996 C3.4997,33.2636 3.5127,33.0306 3.5177,32.7956 L16.0037,32.6746 C16.0267,26.8386 17.2697,21.1766 19.5707,15.9996 L9.1567,15.9996 C9.6527,15.3106 10.1777,14.6436 10.7307,13.9996 L20.5257,13.9996 C22.3767,10.3746 24.7757,7.0336 27.6527,4.0766 C28.7477,3.8586 29.8667,3.7066 31.0007,3.6126 C27.6547,6.6146 24.8877,10.1306 22.7817,13.9996 L42.2187,13.9996 C40.0877,10.0856 37.2817,6.5336 33.8827,3.5096 C34.9307,3.5226 35.9657,3.5906 36.9867,3.7086 C40.0247,6.7546 42.5457,10.2236 44.4747,13.9996 L56.2697,13.9996 C56.8227,14.6436 57.3477,15.3106 57.8437,15.9996 L45.4297,15.9996 C47.6877,21.0816 48.9217,26.6316 48.9877,32.3546 L63.4667,32.2146 C63.4857,32.6416 63.4997,33.0686 63.4997,33.4996 C63.4997,33.7396 63.4877,33.9766 63.4827,34.2146 L48.9547,34.3556 C48.7657,39.4376 47.6467,44.4016 45.6937,48.9996 L58.9997,48.9996 C59.0557,48.9996 59.1047,49.0226 59.1587,49.0316 C58.7467,49.7076 58.3047,50.3606 57.8437,50.9996 L44.7777,50.9996 C42.4927,55.6766 39.3287,59.9076 35.4377,63.4306 C34.7967,63.4716 34.1517,63.4996 33.4997,63.4996 C32.0767,63.4996 30.6777,63.3936 29.3057,63.2006 M33.4997,0.4996 C15.3037,0.4996 0.4997,15.3036 0.4997,33.4996 C0.4997,51.6966 15.3037,66.4996 33.4997,66.4996 C51.6967,66.4996 66.4997,51.6966 66.4997,33.4996 C66.4997,15.3036 51.6967,0.4996 33.4997,0.4996" id="Fill-7"></path>
            </g>
        </g>
    </g>
</svg>